<svg id="svg" version="1.1" width="460" height="240" viewBox="0" xmlns="http://www.w3.org/2000/svg" xmlns:xlink="http://www.w3.org/1999/xlink" ><g id="svgg"><path id="path0" d="M297.785 146.375 C 297.610 146.507,296.591 148.387,295.522 150.552 C 294.453 152.717,293.493 154.541,293.389 154.606 C 293.284 154.671,293.218 154.757,293.243 154.798 C 293.350 154.977,292.993 155.737,292.802 155.737 C 292.686 155.737,292.645 155.791,292.711 155.857 C 292.852 155.998,292.123 157.498,291.813 157.702 C 291.695 157.780,291.664 157.845,291.744 157.846 C 291.921 157.850,289.035 163.658,288.774 163.824 C 288.673 163.888,288.609 163.975,288.634 164.016 C 288.741 164.195,288.384 164.954,288.193 164.954 C 288.077 164.954,288.036 165.009,288.102 165.075 C 288.169 165.141,288.094 165.443,287.937 165.747 C 287.593 166.414,287.488 166.411,289.613 165.799 C 291.703 165.198,291.556 165.080,292.294 167.945 C 293.609 173.050,293.092 178.737,290.923 183.018 C 289.960 184.919,285.485 188.946,282.245 190.829 C 281.418 191.310,280.765 191.721,280.793 191.743 C 280.822 191.765,282.444 192.670,284.398 193.754 C 286.351 194.839,287.993 195.780,288.046 195.847 C 288.099 195.913,288.229 195.983,288.334 196.002 C 288.440 196.022,291.119 197.481,294.287 199.245 C 300.860 202.904,300.118 202.642,301.510 201.791 L 302.588 201.132 301.253 200.712 C 299.555 200.177,297.036 198.905,293.066 196.579 C 291.339 195.566,289.265 194.468,288.458 194.137 C 286.064 193.158,283.623 191.915,283.638 191.684 C 283.643 191.611,284.436 190.903,285.399 190.110 C 294.111 182.947,296.107 177.299,293.703 166.605 C 293.347 165.023,293.250 165.142,295.662 164.202 C 300.327 162.384,305.216 161.058,310.581 160.153 C 312.409 159.845,314.127 159.508,314.398 159.405 C 314.669 159.302,314.943 159.270,315.007 159.334 C 315.070 159.397,315.122 159.359,315.122 159.248 C 315.122 159.137,315.317 158.985,315.554 158.911 C 315.909 158.800,315.726 158.687,314.546 158.284 C 310.609 156.939,305.163 157.800,295.468 161.300 C 293.372 162.057,291.611 162.630,291.555 162.574 C 291.382 162.402,292.244 160.455,294.675 155.524 C 295.956 152.926,297.269 149.987,297.592 148.995 C 298.538 146.089,298.560 145.794,297.785 146.375 M247.144 180.605 C 247.144 187.049,247.181 187.998,247.432 187.998 C 247.681 187.998,247.720 188.713,247.720 193.279 C 247.720 198.054,247.689 198.560,247.403 198.560 C 246.571 198.560,247.704 203.444,249.194 206.282 C 249.949 207.717,252.202 210.013,253.642 210.814 L 254.441 211.258 254.441 209.213 L 254.441 207.167 253.385 205.984 C 251.408 203.768,250.249 200.441,250.455 197.569 C 250.528 196.541,250.492 196.255,250.286 196.255 C 250.073 196.255,250.024 195.519,250.024 192.319 C 250.024 188.948,250.065 188.382,250.312 188.382 C 250.563 188.382,250.600 187.411,250.600 180.797 L 250.600 173.212 248.872 173.212 L 247.144 173.212 247.144 180.605 M321.843 189.398 C 321.843 206.357,321.826 206.059,322.921 208.241 C 324.930 212.248,328.478 213.838,332.890 212.710 C 334.884 212.201,334.836 212.278,334.208 210.620 L 333.665 209.190 332.745 209.540 C 331.560 209.990,329.850 209.985,328.845 209.529 C 328.118 209.199,326.341 207.440,326.537 207.245 C 326.586 207.196,326.501 207.031,326.349 206.878 C 325.530 206.060,325.396 204.740,325.396 197.504 L 325.396 190.590 328.709 190.538 L 332.021 190.485 332.021 188.954 L 332.021 187.422 328.661 187.422 L 325.300 187.422 325.300 180.605 L 325.300 173.788 323.572 173.788 L 321.843 173.788 321.843 189.398 M308.819 176.779 C 305.261 178.461,303.761 179.722,302.924 181.734 C 302.464 182.839,302.633 182.911,305.675 182.900 C 308.034 182.891,308.602 182.818,311.186 182.186 C 312.770 181.798,314.709 181.390,315.495 181.279 C 317.209 181.036,316.996 181.242,317.159 179.658 L 317.294 178.340 316.064 178.483 C 314.026 178.721,312.949 178.825,312.250 178.851 L 311.585 178.877 311.347 177.465 C 311.216 176.689,311.083 175.986,311.051 175.902 C 311.020 175.819,310.015 176.214,308.819 176.779 M258.351 183.962 C 256.112 184.549,253.514 186.063,251.955 187.691 L 251.293 188.382 253.517 188.382 C 255.591 188.382,255.826 188.343,256.982 187.802 C 260.810 186.010,266.839 186.788,268.697 189.312 C 268.830 189.493,269.025 189.631,269.131 189.619 C 269.429 189.584,272.684 187.992,272.684 187.881 C 272.684 187.828,272.603 187.833,272.505 187.894 C 272.406 187.955,272.212 187.846,272.073 187.653 C 269.804 184.504,263.131 182.709,258.351 183.962 M278.832 192.330 C 278.830 192.442,280.319 193.712,282.141 195.153 C 283.963 196.594,287.312 199.251,289.582 201.058 L 293.711 204.343 295.151 204.225 C 297.567 204.028,297.683 203.942,296.181 203.465 C 293.725 202.685,289.160 199.824,284.114 195.900 C 282.844 194.913,281.200 193.749,280.461 193.314 C 279.722 192.879,279.053 192.434,278.976 192.325 C 278.879 192.190,278.834 192.191,278.832 192.330 M278.508 194.815 C 278.909 196.267,279.032 196.884,278.939 196.977 C 278.880 197.036,278.913 197.181,279.011 197.300 C 279.761 198.204,280.231 205.318,279.705 207.801 C 279.422 209.136,278.381 211.426,278.058 211.426 C 277.954 211.426,277.890 211.505,277.916 211.601 C 277.943 211.698,277.636 212.173,277.235 212.658 C 276.833 213.142,276.545 213.538,276.595 213.538 C 277.076 213.538,284.700 210.539,287.518 209.241 C 288.337 208.864,289.008 208.618,289.009 208.694 C 289.011 208.771,289.076 208.737,289.153 208.619 C 289.231 208.500,289.726 208.184,290.254 207.916 C 290.783 207.648,291.462 207.169,291.764 206.851 L 292.312 206.272 291.572 206.439 C 291.164 206.531,289.837 207.074,288.622 207.647 C 286.088 208.841,282.155 210.425,281.292 210.597 C 280.729 210.710,280.711 210.693,280.823 210.158 C 281.806 205.473,281.679 199.827,280.540 197.563 C 279.750 195.992,278.286 194.012,278.508 194.815 M276.161 196.880 L 276.140 198.560 274.508 198.560 L 272.876 198.560 272.876 199.126 C 272.876 202.568,269.959 206.929,266.585 208.534 L 265.194 209.196 265.194 210.983 C 265.194 211.966,265.222 212.770,265.256 212.770 C 267.157 212.770,271.334 210.068,273.370 207.522 C 275.826 204.449,277.104 199.561,276.365 196.063 C 276.195 195.258,276.181 195.314,276.161 196.880 " stroke="none" fill="#000000" fill-rule="evenodd"></path><path id="path1" d="M310.077 157.604 C 310.418 157.646,311.023 157.647,311.422 157.605 C 311.820 157.564,311.541 157.529,310.802 157.528 C 310.062 157.527,309.736 157.561,310.077 157.604 M294.635 173.692 C 294.636 174.325,294.672 174.562,294.714 174.216 C 294.757 173.871,294.756 173.353,294.712 173.064 C 294.669 172.776,294.634 173.058,294.635 173.692 M250.646 180.749 C 250.606 187.386,250.562 188.382,250.312 188.382 C 250.065 188.382,250.024 188.948,250.024 192.319 C 250.024 195.667,250.066 196.255,250.308 196.255 C 250.465 196.255,250.645 196.018,250.709 195.727 C 250.939 194.688,251.401 193.378,251.575 193.270 C 251.672 193.210,251.752 193.025,251.752 192.860 C 251.752 192.056,254.300 189.193,255.497 188.652 C 255.759 188.534,255.155 188.461,253.604 188.424 C 252.099 188.388,251.237 188.444,251.062 188.590 C 250.837 188.776,250.788 187.610,250.744 180.963 L 250.692 173.116 250.646 180.749 M321.743 189.150 C 321.743 197.652,321.767 201.131,321.795 196.880 C 321.824 192.628,321.824 185.672,321.795 181.421 C 321.767 177.170,321.743 180.648,321.743 189.150 M325.387 180.605 C 325.387 184.407,325.412 185.990,325.444 184.122 C 325.475 182.254,325.475 179.143,325.444 177.209 C 325.412 175.274,325.387 176.803,325.387 180.605 M121.648 194.335 C 121.648 204.105,121.671 208.101,121.699 203.217 C 121.728 198.332,121.728 190.338,121.699 185.454 C 121.671 180.569,121.648 184.566,121.648 194.335 M284.879 178.010 C 284.813 178.116,284.885 178.153,285.040 178.093 C 285.424 177.946,285.634 178.352,285.351 178.693 C 285.180 178.898,285.178 178.973,285.340 178.973 C 285.682 178.973,285.813 178.425,285.548 178.106 C 285.273 177.775,285.045 177.742,284.879 178.010 M316.851 178.344 C 317.009 178.405,317.202 178.549,317.280 178.665 C 317.367 178.796,317.422 178.748,317.424 178.541 C 317.426 178.315,317.285 178.209,316.995 178.220 C 316.706 178.230,316.658 178.271,316.851 178.344 M311.522 178.589 C 311.570 178.766,311.852 178.887,312.257 178.904 C 312.859 178.928,312.866 178.923,312.339 178.838 C 312.022 178.788,311.691 178.646,311.604 178.523 C 311.496 178.373,311.470 178.394,311.522 178.589 M290.764 182.624 C 290.305 183.448,289.490 184.627,288.954 185.244 L 287.979 186.366 289.175 185.214 C 289.990 184.428,290.592 183.617,291.063 182.667 C 291.995 180.790,291.801 180.762,290.764 182.624 M305.185 183.138 C 305.370 183.186,305.672 183.186,305.857 183.138 C 306.042 183.089,305.891 183.050,305.521 183.050 C 305.151 183.050,305.000 183.089,305.185 183.138 M261.216 183.531 C 261.720 183.570,262.498 183.570,262.944 183.530 C 263.390 183.489,262.976 183.457,262.026 183.458 C 261.075 183.458,260.711 183.491,261.216 183.531 M289.390 186.558 C 288.924 187.033,288.585 187.422,288.638 187.422 C 288.691 187.422,289.116 187.033,289.582 186.558 C 290.049 186.083,290.387 185.694,290.334 185.694 C 290.282 185.694,289.857 186.083,289.390 186.558 M261.117 186.793 C 261.462 186.836,261.981 186.835,262.269 186.791 C 262.558 186.747,262.276 186.712,261.642 186.713 C 261.008 186.714,260.772 186.750,261.117 186.793 M272.151 187.705 C 272.469 188.056,269.797 189.704,269.151 189.555 C 269.057 189.534,269.404 189.980,269.923 190.548 C 271.587 192.369,272.876 195.466,272.876 197.644 L 272.876 198.560 274.494 198.560 L 276.113 198.560 276.177 196.783 C 276.254 194.666,275.514 191.829,274.561 190.590 C 274.480 190.485,274.033 189.880,273.567 189.245 C 273.102 188.611,272.519 187.923,272.271 187.715 C 271.856 187.369,271.846 187.368,272.151 187.705 M332.059 188.906 L 332.021 190.485 328.709 190.538 L 325.396 190.590 325.392 197.024 L 325.388 203.457 325.443 197.072 L 325.497 190.687 328.765 190.687 C 332.512 190.687,332.262 190.829,332.164 188.748 L 332.097 187.326 332.059 188.906 M246.958 193.279 C 246.943 198.457,246.950 198.560,247.331 198.560 C 247.712 198.560,247.720 198.452,247.720 193.279 C 247.720 188.176,247.707 187.998,247.346 187.998 C 246.986 187.998,246.972 188.181,246.958 193.279 M250.473 198.176 C 250.473 198.968,250.507 199.292,250.548 198.896 C 250.589 198.500,250.589 197.852,250.548 197.456 C 250.507 197.060,250.473 197.384,250.473 198.176 M146.414 204.801 C 146.414 208.497,146.440 209.982,146.471 208.101 C 146.503 206.219,146.503 203.195,146.471 201.380 C 146.440 199.565,146.414 201.104,146.414 204.801 M297.168 203.937 C 296.797 204.096,296.799 204.102,297.204 204.115 C 297.436 204.123,297.678 204.042,297.744 203.937 C 297.884 203.709,297.696 203.709,297.168 203.937 M254.201 206.816 C 254.362 206.998,254.441 207.788,254.441 209.235 L 254.441 211.385 255.641 211.864 C 258.229 212.898,259.090 213.056,262.122 213.057 C 265.356 213.058,265.194 213.169,265.194 210.952 C 265.194 209.685,265.263 209.121,265.418 209.121 C 265.542 209.121,265.598 209.077,265.544 209.023 C 265.490 208.969,265.135 209.054,264.755 209.213 C 262.117 210.315,257.185 209.357,254.801 207.280 C 254.339 206.877,254.069 206.668,254.201 206.816 M250.592 208.401 C 251.388 209.249,251.560 209.402,251.560 209.257 C 251.560 209.227,251.150 208.816,250.648 208.345 L 249.736 207.489 250.592 208.401 M276.747 213.026 C 276.327 213.460,276.222 213.666,276.422 213.666 C 276.584 213.666,276.672 213.622,276.618 213.567 C 276.563 213.513,276.752 213.225,277.038 212.927 C 277.323 212.630,277.514 212.386,277.462 212.386 C 277.410 212.386,277.089 212.674,276.747 213.026 M143.591 213.295 C 144.040 213.335,144.774 213.335,145.223 213.295 C 145.672 213.254,145.305 213.221,144.407 213.221 C 143.509 213.221,143.142 213.254,143.591 213.295 " stroke="none" fill="#121212" fill-rule="evenodd"></path><path id="path2" d="M185.393 173.736 C 187.195 173.801,187.206 173.804,187.294 174.323 C 187.375 174.806,187.380 174.802,187.354 174.268 L 187.326 173.692 185.453 173.681 L 183.580 173.670 185.393 173.736 M121.629 174.065 C 121.571 174.217,121.563 174.498,121.613 174.689 C 121.673 174.921,121.710 174.866,121.725 174.521 C 121.743 174.113,121.858 173.989,122.276 173.925 L 122.804 173.845 122.270 173.817 C 121.960 173.800,121.691 173.904,121.629 174.065 M123.423 173.926 C 123.764 173.969,124.369 173.970,124.768 173.928 C 125.166 173.886,124.887 173.852,124.148 173.851 C 123.409 173.850,123.083 173.884,123.423 173.926 M187.316 181.181 C 187.316 184.666,187.342 186.119,187.374 184.410 C 187.405 182.700,187.405 179.848,187.374 178.073 C 187.342 176.297,187.316 177.696,187.316 181.181 M284.894 178.328 C 284.742 178.722,284.870 178.861,285.250 178.716 C 285.419 178.651,285.495 178.478,285.430 178.308 C 285.282 177.923,285.046 177.932,284.894 178.328 M298.320 181.981 C 297.215 182.278,295.919 183.915,295.919 185.016 C 295.919 185.610,295.135 186.137,291.215 188.178 C 288.415 189.636,285.706 191.328,285.098 191.999 C 284.750 192.384,284.758 192.396,285.717 192.882 C 286.973 193.519,286.688 193.590,289.445 191.948 C 294.002 189.234,297.279 187.787,297.998 188.172 C 299.194 188.812,301.254 188.080,302.009 186.746 C 303.409 184.275,301.063 181.245,298.320 181.981 M74.946 184.875 C 75.451 184.915,76.228 184.914,76.674 184.874 C 77.120 184.834,76.707 184.801,75.756 184.802 C 74.806 184.802,74.441 184.835,74.946 184.875 M165.422 185.550 L 164.858 186.174 165.482 185.610 C 165.826 185.300,166.107 185.019,166.107 184.986 C 166.107 184.837,165.948 184.968,165.422 185.550 M170.475 186.981 C 170.713 187.027,171.102 187.027,171.339 186.981 C 171.577 186.936,171.383 186.898,170.907 186.898 C 170.432 186.898,170.238 186.936,170.475 186.981 M194.016 188.766 C 194.016 189.558,194.049 189.882,194.091 189.486 C 194.132 189.090,194.132 188.442,194.091 188.046 C 194.049 187.650,194.016 187.974,194.016 188.766 M153.514 192.319 C 153.514 194.537,153.542 195.418,153.576 194.277 C 153.610 193.136,153.610 191.321,153.576 190.244 C 153.542 189.167,153.514 190.101,153.514 192.319 M218.726 190.012 C 218.369 190.380,218.114 190.710,218.160 190.746 C 218.206 190.783,218.534 190.481,218.889 190.077 C 219.697 189.159,219.593 189.117,218.726 190.012 M233.989 190.110 C 234.402 190.533,234.783 190.879,234.836 190.879 C 234.888 190.879,234.594 190.533,234.181 190.110 C 233.769 189.688,233.388 189.342,233.335 189.342 C 233.283 189.342,233.577 189.688,233.989 190.110 M128.458 190.446 L 127.796 191.167 128.517 190.505 C 129.187 189.889,129.325 189.726,129.178 189.726 C 129.146 189.726,128.822 190.050,128.458 190.446 M163.286 190.975 C 163.287 191.608,163.323 191.844,163.365 191.499 C 163.408 191.154,163.407 190.636,163.363 190.347 C 163.320 190.058,163.285 190.341,163.286 190.975 M187.314 190.744 C 187.262 190.881,187.243 192.199,187.273 193.672 L 187.328 196.351 187.423 193.423 C 187.516 190.541,187.505 190.248,187.314 190.744 M236.348 194.553 C 236.231 194.902,236.392 195.487,236.604 195.487 C 236.820 195.487,236.819 194.896,236.602 194.553 C 236.462 194.332,236.423 194.332,236.348 194.553 M142.531 195.487 C 142.531 195.857,142.571 196.008,142.619 195.823 C 142.667 195.639,142.667 195.336,142.619 195.151 C 142.571 194.966,142.531 195.118,142.531 195.487 M218.298 195.438 C 218.963 195.475,220.000 195.475,220.603 195.437 C 221.206 195.399,220.663 195.368,219.395 195.369 C 218.128 195.369,217.634 195.400,218.298 195.438 M308.485 195.919 L 307.921 196.543 308.545 195.979 C 309.127 195.454,309.258 195.295,309.109 195.295 C 309.076 195.295,308.795 195.576,308.485 195.919 M306.667 197.744 L 305.617 198.848 306.721 197.798 C 307.747 196.823,307.913 196.639,307.771 196.639 C 307.741 196.639,307.244 197.136,306.667 197.744 M240.822 198.112 C 240.813 198.341,240.699 198.571,240.566 198.625 C 240.378 198.700,240.380 198.725,240.573 198.737 C 240.864 198.755,241.076 198.291,240.936 197.942 C 240.881 197.806,240.830 197.883,240.822 198.112 M211.670 198.944 C 211.670 199.419,211.708 199.614,211.753 199.376 C 211.799 199.138,211.799 198.749,211.753 198.512 C 211.708 198.274,211.670 198.469,211.670 198.944 M125.441 199.136 C 125.441 199.506,125.480 199.657,125.528 199.472 C 125.577 199.287,125.577 198.985,125.528 198.800 C 125.480 198.615,125.441 198.766,125.441 199.136 M216.947 198.695 C 217.184 198.741,217.573 198.741,217.811 198.695 C 218.048 198.650,217.854 198.612,217.379 198.612 C 216.904 198.612,216.709 198.650,216.947 198.695 M220.691 198.703 C 221.510 198.739,222.849 198.739,223.668 198.703 C 224.486 198.667,223.817 198.637,222.180 198.637 C 220.542 198.637,219.873 198.667,220.691 198.703 M230.389 198.703 C 232.105 198.735,234.914 198.735,236.630 198.703 C 238.346 198.672,236.942 198.646,233.509 198.646 C 230.077 198.646,228.673 198.672,230.389 198.703 M226.164 209.833 C 226.402 209.879,226.791 209.879,227.028 209.833 C 227.266 209.787,227.072 209.750,226.596 209.750 C 226.121 209.750,225.927 209.787,226.164 209.833 " stroke="none" fill="#363636" fill-rule="evenodd"></path><path id="path3" d="M298.338 146.209 C 298.635 146.984,297.264 150.508,294.475 156.139 C 293.188 158.737,291.999 161.260,291.834 161.747 L 291.532 162.633 293.390 161.949 C 304.519 157.856,310.325 156.776,314.210 158.078 C 315.029 158.352,315.699 158.499,315.699 158.405 C 315.699 158.311,315.590 158.233,315.457 158.233 C 315.323 158.233,314.999 158.039,314.736 157.801 C 314.473 157.564,313.869 157.110,313.394 156.793 C 311.772 155.711,306.193 151.627,306.129 151.473 C 306.094 151.389,305.989 151.320,305.896 151.320 C 305.684 151.320,301.415 148.238,301.328 148.022 C 301.293 147.935,301.181 147.864,301.080 147.864 C 300.861 147.864,298.732 146.324,298.640 146.099 C 298.527 145.825,298.232 145.932,298.338 146.209 M312.626 159.899 C 305.697 161.016,300.782 162.297,295.518 164.356 L 293.484 165.151 293.922 167.270 C 296.046 177.557,294.135 182.910,285.877 189.808 L 283.613 191.699 284.148 192.023 C 284.681 192.346,284.685 192.344,285.866 191.372 C 286.516 190.837,287.986 189.892,289.132 189.274 C 296.456 185.320,295.810 185.769,296.015 184.489 C 296.611 180.762,302.431 181.305,302.445 185.089 C 302.454 187.398,299.884 189.182,298.001 188.174 C 297.216 187.754,293.494 189.468,288.467 192.564 L 287.063 193.429 288.516 194.061 C 290.071 194.737,291.067 195.276,294.095 197.082 C 298.182 199.519,302.600 201.436,303.085 200.984 C 303.212 200.865,303.705 200.432,304.179 200.021 C 305.726 198.681,308.423 196.002,309.916 194.322 C 312.281 191.660,312.576 191.301,314.800 188.382 C 317.705 184.568,318.084 184.076,318.199 183.965 C 318.516 183.660,318.983 182.368,319.028 181.668 C 319.056 181.234,318.989 181.193,318.234 181.184 C 317.768 181.178,317.340 181.064,317.252 180.921 C 317.128 180.721,317.072 180.731,316.979 180.973 C 316.900 181.179,316.619 181.277,316.106 181.277 C 315.690 181.277,313.851 181.618,312.020 182.034 C 307.135 183.145,303.374 183.418,302.669 182.714 C 301.512 181.556,307.607 176.430,310.806 175.871 C 311.015 175.834,311.272 175.737,311.378 175.655 C 311.483 175.573,312.002 175.227,312.530 174.887 C 313.487 174.270,314.597 173.245,315.920 171.754 L 316.618 170.968 316.189 170.121 C 315.953 169.656,315.752 169.232,315.742 169.179 C 315.700 168.964,315.450 168.281,315.215 167.739 C 314.625 166.380,313.509 161.663,313.612 160.961 C 313.692 160.413,313.546 159.774,313.346 159.796 C 313.214 159.810,312.890 159.857,312.626 159.899 M154.540 173.340 C 151.031 174.364,152.170 179.711,155.776 179.141 C 158.382 178.729,159.286 175.829,157.392 173.954 C 156.668 173.237,155.648 173.017,154.540 173.340 M247.039 180.605 C 247.039 184.724,247.064 186.382,247.095 184.289 C 247.126 182.196,247.126 178.826,247.095 176.800 C 247.064 174.773,247.039 176.486,247.039 180.605 M322.762 173.738 C 323.320 173.776,324.184 173.776,324.682 173.737 C 325.181 173.697,324.724 173.665,323.668 173.666 C 322.612 173.666,322.204 173.699,322.762 173.738 M183.624 189.678 C 183.684 207.616,183.593 206.511,185.238 209.193 C 187.284 212.530,189.549 213.433,194.431 212.860 C 194.822 212.814,196.357 212.317,196.509 212.187 C 196.595 212.113,196.526 211.717,196.354 211.307 C 196.183 210.897,196.043 210.541,196.044 210.517 C 196.053 210.224,195.592 209.313,195.434 209.313 C 195.068 209.313,193.860 209.785,193.714 209.985 C 193.621 210.112,193.572 210.113,193.570 209.986 C 193.569 209.878,193.123 209.807,192.559 209.825 C 191.361 209.862,189.798 209.265,189.619 208.702 C 189.553 208.494,189.451 208.373,189.391 208.432 C 189.199 208.625,188.175 207.049,187.814 206.006 C 187.504 205.111,187.455 204.155,187.394 197.815 L 187.326 190.637 190.687 190.614 C 193.246 190.596,194.042 190.533,194.028 190.350 C 194.017 190.218,193.996 189.506,193.980 188.766 L 193.951 187.422 190.586 187.422 L 187.220 187.422 187.230 181.133 C 187.235 177.674,187.238 174.606,187.235 174.316 L 187.230 173.788 185.400 173.788 L 183.571 173.788 183.624 189.678 M201.874 174.054 C 201.816 174.148,201.798 178.944,201.834 184.712 C 201.926 199.520,201.927 200.024,201.862 205.473 C 201.830 208.166,201.859 210.996,201.926 211.762 L 202.049 213.154 203.834 213.154 L 205.619 213.154 205.652 209.602 C 205.670 207.648,205.616 206.049,205.531 206.049 C 205.341 206.049,205.324 201.192,205.513 201.050 C 205.729 200.887,205.705 195.487,205.489 195.488 C 205.427 195.488,205.398 194.991,205.424 194.383 C 205.553 191.377,205.553 188.236,205.425 188.315 C 205.346 188.365,205.281 188.313,205.281 188.201 C 205.281 188.090,205.367 187.998,205.473 187.998 C 205.865 187.998,205.721 173.982,205.329 173.965 C 203.369 173.878,201.960 173.915,201.874 174.054 M121.741 174.508 C 121.690 178.663,121.774 213.042,121.836 213.141 C 121.919 213.277,125.157 213.266,125.292 213.129 C 125.330 213.090,125.402 209.386,125.451 204.897 C 125.500 200.408,125.600 196.433,125.672 196.063 C 125.917 194.825,126.202 193.859,126.486 193.309 C 126.742 192.815,126.735 192.725,126.418 192.349 C 126.070 191.937,126.071 191.937,126.473 192.276 C 126.917 192.650,126.948 192.628,127.553 191.530 C 127.734 191.201,127.820 190.870,127.743 190.793 C 127.667 190.717,127.693 190.683,127.800 190.719 C 127.908 190.754,128.460 190.394,129.027 189.918 C 129.594 189.443,130.132 189.076,130.223 189.102 C 130.314 189.129,130.389 189.071,130.389 188.974 C 130.389 188.837,131.812 188.174,132.309 188.079 C 132.362 188.069,132.578 187.982,132.789 187.885 C 133.672 187.482,137.518 187.703,138.646 188.221 C 140.198 188.935,141.742 190.699,141.988 192.039 C 142.035 192.299,142.087 192.511,142.103 192.511 C 142.119 192.511,142.163 192.675,142.201 192.876 C 142.238 193.076,142.371 193.303,142.495 193.380 C 142.636 193.467,142.649 193.563,142.530 193.636 C 142.410 193.711,142.402 194.054,142.508 194.572 C 142.600 195.023,142.698 199.366,142.725 204.225 L 142.775 213.058 144.601 213.112 L 146.427 213.167 146.379 208.504 C 146.295 200.414,146.154 193.680,146.059 193.183 C 145.843 192.044,145.341 190.428,144.992 189.744 C 144.785 189.338,144.669 188.952,144.735 188.886 C 144.801 188.820,144.757 188.766,144.636 188.766 C 144.516 188.766,144.294 188.529,144.143 188.238 C 141.394 182.934,131.423 182.893,126.851 188.166 C 126.526 188.541,126.120 188.991,125.948 189.167 C 125.777 189.343,125.589 189.605,125.531 189.750 C 125.474 189.896,125.420 186.407,125.411 181.997 L 125.396 173.980 123.572 173.980 L 121.747 173.980 121.741 174.508 M169.083 183.646 C 166.986 184.190,164.731 185.958,163.900 187.710 C 163.148 189.296,163.401 193.961,164.273 194.572 C 164.384 194.650,164.409 194.715,164.329 194.716 C 164.249 194.718,164.412 194.976,164.692 195.290 C 164.972 195.604,165.274 195.815,165.363 195.760 C 165.453 195.705,165.485 195.772,165.434 195.909 C 165.313 196.240,165.490 196.469,166.299 197.024 C 166.668 197.277,167.014 197.533,167.067 197.592 C 167.120 197.651,167.487 197.869,167.883 198.077 C 168.279 198.285,168.603 198.522,168.603 198.603 C 168.603 198.685,168.713 198.752,168.848 198.752 C 168.982 198.752,169.782 199.148,170.624 199.633 C 171.466 200.118,172.343 200.528,172.572 200.545 C 172.800 200.562,172.975 200.619,172.959 200.672 C 172.904 200.857,175.038 202.873,175.228 202.815 C 175.334 202.783,175.318 202.861,175.193 202.989 C 175.017 203.167,175.024 203.313,175.223 203.626 C 176.245 205.237,174.735 208.279,172.402 209.310 C 171.528 209.696,169.179 209.841,169.179 209.509 C 169.179 209.437,169.071 209.366,168.939 209.351 C 167.493 209.192,166.402 208.638,165.235 207.472 L 164.359 206.595 163.796 207.234 C 163.486 207.586,163.231 207.943,163.229 208.029 C 163.227 208.114,163.140 208.131,163.034 208.065 C 162.928 208.000,162.842 208.038,162.842 208.150 C 162.842 208.262,162.663 208.532,162.445 208.750 C 162.034 209.161,162.249 209.849,162.701 209.570 C 162.819 209.497,162.844 209.539,162.761 209.673 C 162.600 209.934,163.075 210.387,164.510 211.338 C 169.111 214.387,175.159 213.423,177.701 209.235 C 177.899 208.908,178.115 208.598,178.181 208.545 C 178.314 208.439,178.317 208.427,178.714 206.534 C 179.178 204.325,178.848 202.421,177.692 200.643 C 177.137 199.790,176.668 199.221,176.668 199.401 C 176.668 199.456,176.431 199.279,176.140 199.006 C 175.850 198.734,175.072 198.163,174.412 197.736 C 173.752 197.310,173.212 196.900,173.212 196.824 C 173.212 196.748,172.931 196.581,172.588 196.453 C 171.210 195.937,170.523 195.614,170.523 195.481 C 170.523 195.405,170.257 195.231,169.931 195.097 C 168.349 194.441,166.382 191.670,166.625 190.439 C 167.352 186.758,172.512 185.762,175.478 188.728 C 176.226 189.476,176.984 189.751,176.773 189.198 C 176.670 188.928,176.693 188.909,176.889 189.104 C 177.166 189.378,179.011 187.550,178.856 187.155 C 178.690 186.732,175.966 184.852,174.595 184.214 C 172.949 183.448,170.728 183.219,169.083 183.646 M224.388 183.510 C 220.023 184.156,217.244 185.790,214.735 189.186 C 214.100 190.046,212.508 193.037,212.584 193.228 C 212.596 193.256,212.504 193.538,212.381 193.855 C 212.258 194.172,212.127 194.604,212.090 194.815 C 212.053 195.026,211.973 195.458,211.914 195.775 C 211.760 196.588,211.771 199.851,211.930 200.768 C 212.003 201.191,212.080 201.666,212.102 201.824 C 212.123 201.983,212.188 202.242,212.246 202.400 C 212.304 202.559,212.510 203.164,212.703 203.745 C 212.897 204.325,213.099 204.844,213.153 204.897 C 213.206 204.950,213.414 205.314,213.613 205.707 C 213.813 206.100,214.064 206.368,214.171 206.302 C 214.285 206.231,214.306 206.278,214.222 206.414 C 213.766 207.151,218.799 212.029,219.783 211.805 C 219.845 211.791,220.085 211.903,220.317 212.055 C 223.171 213.920,231.735 213.173,234.614 210.808 C 234.746 210.699,234.854 210.671,234.854 210.744 C 234.854 210.817,234.973 210.763,235.118 210.623 C 235.264 210.484,235.856 209.981,236.434 209.506 C 237.723 208.447,240.184 204.920,239.830 204.641 C 239.096 204.064,236.957 203.056,236.748 203.188 C 236.604 203.280,236.561 203.356,236.653 203.358 C 236.744 203.359,236.574 203.685,236.274 204.081 C 235.975 204.477,235.640 204.923,235.531 205.072 C 235.423 205.221,234.765 205.934,234.070 206.657 C 233.375 207.379,232.843 208.007,232.889 208.053 C 232.934 208.098,232.790 208.088,232.568 208.030 C 232.347 207.972,232.165 208.010,232.165 208.116 C 232.165 208.269,231.254 208.765,230.821 208.847 C 230.768 208.857,230.466 208.974,230.149 209.107 C 226.603 210.590,221.922 209.718,219.048 207.037 C 217.631 205.716,215.589 202.410,216.181 202.397 C 216.259 202.396,216.221 202.330,216.098 202.251 C 215.863 202.102,215.616 200.763,215.571 199.394 L 215.545 198.595 220.639 198.585 C 223.440 198.580,229.118 198.572,233.256 198.567 L 240.780 198.560 240.846 198.128 C 241.058 196.736,239.451 190.679,238.720 190.110 C 238.652 190.058,238.240 189.539,237.805 188.958 C 237.094 188.009,236.636 187.522,235.489 186.494 C 233.146 184.395,227.913 182.988,224.388 183.510 M113.567 184.895 C 113.622 184.983,113.303 185.786,112.858 186.679 C 112.414 187.572,112.060 188.494,112.072 188.727 C 112.084 188.960,112.025 189.150,111.941 189.150 C 111.857 189.150,111.727 189.345,111.652 189.582 C 111.525 189.986,111.052 191.081,110.222 192.895 C 110.029 193.317,109.639 194.246,109.356 194.959 C 109.072 195.672,108.763 196.255,108.669 196.255 C 108.575 196.255,108.497 196.377,108.497 196.525 C 108.497 196.828,105.884 203.133,105.628 203.447 C 105.538 203.558,105.355 204.019,105.220 204.471 C 104.913 205.507,104.893 205.483,103.634 202.592 C 103.059 201.272,102.363 199.695,102.089 199.088 C 101.814 198.481,101.653 197.982,101.731 197.981 C 101.809 197.979,101.784 197.914,101.676 197.837 C 101.568 197.759,101.147 196.918,100.740 195.967 C 100.334 195.017,99.842 193.893,99.646 193.471 C 99.253 192.618,98.402 190.717,97.757 189.246 C 95.487 184.069,95.494 184.075,94.482 186.405 C 94.125 187.229,93.532 188.550,93.164 189.342 C 92.796 190.134,92.390 191.042,92.261 191.359 C 91.940 192.150,89.968 196.644,89.363 197.963 C 89.091 198.555,88.715 199.429,88.527 199.904 C 88.338 200.379,87.797 201.589,87.323 202.592 C 86.850 203.596,86.400 204.620,86.323 204.868 C 86.146 205.442,86.000 205.267,85.467 203.841 C 85.231 203.207,84.923 202.472,84.783 202.208 C 84.644 201.944,84.144 200.778,83.672 199.616 C 83.200 198.454,82.677 197.201,82.509 196.831 C 82.341 196.462,81.502 194.474,80.644 192.415 C 79.786 190.355,78.967 188.411,78.826 188.094 C 78.331 186.988,77.784 185.688,77.754 185.547 C 77.631 184.971,77.476 184.926,75.619 184.926 C 74.159 184.926,73.722 184.983,73.796 185.166 C 73.849 185.298,74.420 186.643,75.064 188.156 C 75.709 189.669,76.236 190.949,76.236 191.001 C 76.236 191.053,76.463 191.587,76.740 192.187 C 77.442 193.708,79.721 198.999,79.776 199.232 C 79.800 199.337,80.051 199.932,80.333 200.552 C 80.614 201.172,80.845 201.713,80.845 201.754 C 80.845 201.795,81.014 202.195,81.221 202.643 C 81.427 203.090,82.252 205.012,83.053 206.913 C 85.619 213.002,85.695 213.154,86.161 213.154 C 86.426 213.154,86.630 212.996,86.717 212.724 C 86.792 212.487,87.090 211.774,87.380 211.139 C 87.669 210.505,88.443 208.776,89.100 207.297 C 89.757 205.819,90.365 204.522,90.450 204.417 C 90.536 204.311,90.619 204.138,90.634 204.033 C 90.650 203.927,90.817 203.495,91.005 203.072 C 91.193 202.650,92.280 200.207,93.421 197.643 C 94.561 195.080,95.532 193.019,95.577 193.065 C 95.623 193.110,95.684 193.264,95.713 193.405 C 95.743 193.547,95.947 194.052,96.167 194.527 C 97.549 197.505,103.889 211.923,103.890 212.088 C 103.890 212.199,104.085 212.532,104.322 212.827 C 104.928 213.583,105.205 213.300,106.253 210.850 C 107.510 207.913,109.244 203.901,109.448 203.457 C 109.959 202.346,110.480 201.129,110.519 200.956 C 110.543 200.847,110.996 199.854,111.525 198.747 C 112.550 196.603,112.974 195.355,112.781 195.044 C 112.716 194.938,112.750 194.906,112.856 194.972 C 113.019 195.072,113.340 194.619,113.474 194.100 C 113.494 194.023,113.769 193.375,114.085 192.659 C 114.401 191.944,114.731 191.186,114.818 190.975 C 115.324 189.745,115.900 188.465,115.985 188.382 C 116.038 188.329,116.110 188.157,116.143 187.998 C 116.177 187.840,116.408 187.278,116.656 186.750 C 117.377 185.218,117.407 184.991,116.904 184.856 C 116.241 184.678,113.453 184.711,113.567 184.895 M153.588 184.835 C 153.525 184.897,153.519 187.536,153.575 190.698 C 153.672 196.237,153.663 196.448,153.314 196.450 C 153.045 196.453,153.017 196.495,153.207 196.614 C 153.411 196.744,153.462 198.382,153.464 204.965 L 153.468 213.154 155.358 213.154 L 157.248 213.154 157.213 198.992 L 157.177 184.830 155.440 184.775 C 154.484 184.745,153.651 184.772,153.588 184.835 M251.841 187.662 L 250.888 188.670 251.896 187.717 C 252.451 187.193,252.904 186.739,252.904 186.709 C 252.904 186.566,252.727 186.725,251.841 187.662 M228.276 187.144 C 228.831 187.211,229.333 187.344,229.392 187.440 C 229.451 187.536,229.669 187.614,229.877 187.614 C 230.380 187.614,232.933 188.909,232.933 189.164 C 232.933 189.275,233.011 189.317,233.105 189.259 C 233.318 189.127,235.354 191.297,235.525 191.837 C 235.594 192.052,235.743 192.171,235.857 192.100 C 235.972 192.029,236.013 192.056,235.948 192.160 C 235.823 192.362,236.160 193.590,236.663 194.767 C 236.935 195.403,236.937 195.487,236.680 195.487 C 236.521 195.487,236.380 195.336,236.368 195.151 C 236.351 194.898,236.326 194.886,236.266 195.103 C 236.148 195.536,215.929 195.607,215.764 195.175 C 215.703 195.015,215.738 194.943,215.845 195.009 C 215.949 195.073,216.035 194.954,216.035 194.744 C 216.035 194.534,216.170 194.227,216.336 194.061 C 216.502 193.895,216.584 193.759,216.518 193.759 C 216.452 193.759,216.723 193.133,217.121 192.367 C 218.625 189.474,221.530 187.472,224.867 187.029 C 225.909 186.890,226.286 186.903,228.276 187.144 M264.900 194.623 C 264.851 194.782,264.768 195.045,264.717 195.209 C 264.665 195.373,264.698 195.461,264.790 195.404 C 264.881 195.347,264.998 195.084,265.049 194.818 C 265.149 194.293,265.046 194.158,264.900 194.623 M279.123 195.124 C 279.210 195.271,279.473 195.651,279.706 195.967 C 281.502 198.405,281.935 201.718,281.235 207.655 C 281.051 209.214,280.939 210.528,280.986 210.575 C 281.166 210.754,286.089 208.809,289.209 207.326 C 290.207 206.852,291.300 206.392,291.640 206.305 L 292.257 206.145 290.584 204.754 C 289.663 203.990,288.547 203.039,288.104 202.642 C 287.224 201.854,286.267 201.039,284.494 199.568 C 283.860 199.042,282.356 197.767,281.153 196.734 C 279.949 195.701,279.036 194.977,279.123 195.124 M284.301 195.977 C 285.153 196.720,292.051 201.475,293.443 202.278 C 294.410 202.836,296.924 203.745,297.501 203.745 C 297.700 203.745,297.823 203.809,297.774 203.889 C 297.726 203.968,298.028 204.037,298.447 204.042 L 299.208 204.052 298.764 203.698 C 297.770 202.906,295.976 201.764,294.410 200.929 C 293.497 200.441,291.522 199.342,290.019 198.485 C 286.545 196.504,286.224 196.339,284.752 195.773 L 283.533 195.306 284.301 195.977 M276.589 198.368 C 276.589 199.160,276.623 199.484,276.664 199.088 C 276.706 198.692,276.706 198.044,276.664 197.648 C 276.623 197.252,276.589 197.576,276.589 198.368 M247.004 199.328 C 247.004 199.803,247.041 199.998,247.087 199.760 C 247.133 199.522,247.133 199.133,247.087 198.896 C 247.041 198.658,247.004 198.853,247.004 199.328 " stroke="none" fill="#1a2901" fill-rule="evenodd"></path><path id="path4" d="M202.832 173.925 C 203.123 173.969,203.598 173.969,203.889 173.925 C 204.179 173.881,203.941 173.845,203.361 173.845 C 202.780 173.845,202.542 173.881,202.832 173.925 M201.902 192.031 C 201.902 193.773,201.932 194.486,201.967 193.615 C 202.003 192.744,202.003 191.318,201.967 190.446 C 201.932 189.575,201.902 190.288,201.902 192.031 M205.434 192.223 C 205.402 194.019,205.442 195.488,205.521 195.488 C 205.600 195.487,205.665 194.018,205.665 192.223 C 205.665 190.427,205.626 188.958,205.578 188.958 C 205.530 188.958,205.465 190.427,205.434 192.223 M201.902 203.553 C 201.902 205.190,201.931 205.859,201.967 205.041 C 202.003 204.222,202.003 202.883,201.967 202.064 C 201.931 201.246,201.902 201.916,201.902 203.553 M153.487 201.920 C 153.489 202.448,153.526 202.642,153.570 202.350 C 153.614 202.058,153.613 201.626,153.568 201.390 C 153.522 201.153,153.486 201.392,153.487 201.920 M205.377 203.553 C 205.377 204.926,205.442 206.049,205.521 206.049 C 205.600 206.049,205.665 204.926,205.665 203.553 C 205.665 202.180,205.600 201.056,205.521 201.056 C 205.442 201.056,205.377 202.180,205.377 203.553 M157.133 205.089 C 157.133 205.564,157.171 205.759,157.217 205.521 C 157.262 205.283,157.262 204.894,157.217 204.657 C 157.171 204.419,157.133 204.614,157.133 205.089 M201.869 212.386 C 201.869 212.756,201.908 212.907,201.957 212.722 C 202.005 212.537,202.005 212.235,201.957 212.050 C 201.908 211.865,201.869 212.016,201.869 212.386 " stroke="none" fill="#113311" fill-rule="evenodd"></path></g></svg>