<svg id="svg" version="1.1" width="460" height="240" viewBox="0"  xmlns="http://www.w3.org/2000/svg" xmlns:xlink="http://www.w3.org/1999/xlink" ><g id="svgg"><path id="path0" d="" stroke="none" fill="#555555" fill-rule="evenodd"></path><path id="path1" d="M297.684 146.471 C 297.271 146.828,287.595 166.299,287.831 166.299 C 287.907 166.299,288.700 166.084,289.592 165.823 C 290.485 165.561,291.277 165.345,291.352 165.342 C 291.428 165.340,291.706 166.051,291.970 166.923 C 295.025 177.005,291.560 185.433,282.126 190.870 C 281.352 191.316,280.747 191.709,280.782 191.743 C 280.817 191.777,285.207 194.229,290.539 197.191 L 300.233 202.577 301.101 202.075 C 302.815 201.083,302.798 201.129,301.579 200.775 C 299.915 200.291,297.604 199.165,294.339 197.246 C 291.003 195.286,288.406 193.961,286.990 193.498 C 286.462 193.325,285.485 192.848,284.819 192.438 L 283.609 191.694 285.972 189.677 C 291.166 185.243,292.926 182.852,294.104 178.634 C 294.840 175.998,294.641 170.182,293.686 166.416 C 293.343 165.064,293.225 165.190,295.727 164.230 C 300.763 162.299,305.155 161.111,310.749 160.167 C 313.615 159.683,315.891 159.046,315.891 158.728 C 315.891 158.579,313.557 157.896,312.220 157.653 C 309.287 157.121,303.313 158.410,295.355 161.291 C 293.303 162.034,291.590 162.610,291.550 162.570 C 291.407 162.426,292.902 159.045,294.360 156.217 C 296.706 151.663,298.416 147.477,298.416 146.283 C 298.416 146.035,298.095 146.117,297.684 146.471 M247.145 186.798 C 247.146 202.334,247.110 201.936,248.851 205.580 C 250.060 208.111,253.567 211.537,254.559 211.156 C 254.716 211.095,254.798 211.121,254.741 211.213 C 254.620 211.410,256.435 212.228,257.074 212.265 C 257.315 212.279,257.513 212.347,257.513 212.417 C 257.513 212.610,259.190 212.883,261.624 213.088 C 262.523 213.164,263.099 213.144,263.035 213.041 C 262.974 212.942,263.305 212.896,263.797 212.935 C 264.276 212.973,264.622 212.930,264.567 212.839 C 264.511 212.748,264.879 212.666,265.385 212.656 C 269.487 212.573,275.177 206.766,276.225 201.592 C 276.911 198.199,275.975 191.493,274.873 191.915 C 274.732 191.970,274.564 191.929,274.500 191.826 C 274.436 191.722,274.455 191.661,274.542 191.690 C 274.708 191.745,274.796 191.593,274.796 191.251 C 274.796 191.139,274.696 191.110,274.574 191.185 C 274.436 191.271,274.405 191.238,274.492 191.096 C 274.570 190.970,274.414 190.613,274.138 190.284 C 273.866 189.961,273.644 189.639,273.644 189.568 C 273.643 189.496,273.427 189.187,273.163 188.880 C 272.900 188.573,272.684 188.254,272.684 188.170 C 272.684 187.857,269.911 185.697,268.676 185.048 C 264.442 182.823,259.034 182.936,254.963 185.335 C 253.496 186.199,251.114 188.328,251.242 188.661 C 251.288 188.781,251.184 188.890,251.011 188.904 C 250.723 188.925,250.701 188.255,250.752 181.070 L 250.808 173.212 248.976 173.212 L 247.144 173.212 247.145 186.798 M321.701 189.486 C 321.761 203.427,321.805 205.302,322.087 206.232 C 323.766 211.757,328.125 214.235,333.317 212.617 C 334.083 212.378,334.710 212.121,334.710 212.044 C 334.711 211.968,334.489 211.295,334.217 210.548 L 333.723 209.189 332.728 209.533 C 330.151 210.424,328.134 209.715,326.645 207.395 C 325.564 205.710,325.497 205.130,325.494 197.456 L 325.492 190.494 328.853 190.494 L 332.213 190.494 332.213 188.958 L 332.213 187.422 328.853 187.422 L 325.492 187.422 325.492 180.605 L 325.492 173.788 323.562 173.788 L 321.633 173.788 321.701 189.486 M308.266 177.051 C 303.947 179.167,301.132 182.514,303.361 182.882 C 305.559 183.245,307.436 183.026,313.490 181.695 C 314.441 181.486,315.619 181.260,316.108 181.192 C 317.094 181.055,317.235 180.791,317.235 179.074 L 317.235 178.264 315.458 178.505 C 314.482 178.638,313.209 178.775,312.630 178.811 L 311.577 178.877 311.370 177.393 C 311.256 176.577,311.121 175.867,311.070 175.816 C 311.019 175.765,309.757 176.321,308.266 177.051 M264.610 187.168 C 266.124 187.584,267.409 188.279,268.939 189.509 C 269.678 190.103,270.354 190.566,270.442 190.537 C 270.529 190.509,270.537 190.587,270.460 190.711 C 270.383 190.835,270.450 191.032,270.609 191.148 C 270.768 191.264,270.932 191.445,270.974 191.551 C 271.017 191.656,271.106 191.724,271.173 191.702 C 271.240 191.680,271.283 191.810,271.269 191.990 C 271.253 192.201,271.371 192.308,271.600 192.289 C 271.844 192.268,271.894 192.321,271.759 192.456 C 271.538 192.677,271.851 193.567,272.150 193.567 C 272.245 193.567,272.276 193.642,272.220 193.733 C 272.163 193.824,272.310 194.494,272.545 195.221 C 275.185 203.395,266.462 211.901,258.185 209.223 C 257.306 208.938,257.023 208.867,256.959 208.911 C 256.918 208.939,256.830 208.875,256.765 208.769 C 256.699 208.663,256.524 208.548,256.375 208.513 C 256.227 208.478,255.943 208.295,255.746 208.106 C 255.548 207.918,255.282 207.823,255.154 207.897 C 255.026 207.971,254.976 207.969,255.044 207.893 C 255.112 207.816,254.742 207.356,254.221 206.869 C 251.443 204.270,250.137 200.541,250.606 196.543 C 250.892 194.103,251.060 193.584,252.085 191.959 C 252.361 191.523,252.583 191.123,252.579 191.071 C 252.575 191.018,252.737 190.859,252.938 190.718 C 253.189 190.543,253.267 190.331,253.188 190.046 C 253.100 189.734,253.119 189.699,253.261 189.906 C 253.417 190.132,253.591 190.055,254.229 189.479 C 256.779 187.175,261.122 186.208,264.610 187.168 M278.896 192.561 C 278.955 192.656,280.970 194.282,283.374 196.175 C 285.778 198.067,289.087 200.683,290.728 201.987 L 293.711 204.359 295.439 204.226 C 297.638 204.057,297.971 203.878,296.641 203.580 C 294.598 203.123,289.714 200.161,284.904 196.463 C 281.715 194.011,278.503 191.925,278.896 192.561 M278.445 194.606 C 278.445 194.650,278.651 195.579,278.904 196.670 C 279.770 200.416,279.885 201.313,279.885 204.321 C 279.885 208.429,279.154 210.562,276.941 212.914 C 276.218 213.683,276.212 213.683,278.551 212.893 C 283.576 211.194,290.510 208.056,291.599 206.987 L 292.367 206.233 291.723 206.361 C 291.369 206.431,289.813 207.070,288.266 207.781 C 283.678 209.889,280.586 210.975,280.806 210.402 C 281.646 208.213,281.681 199.851,280.857 198.052 C 280.232 196.686,278.445 194.133,278.445 194.606 " stroke="none" fill="#4d7326" fill-rule="evenodd"></path><path id="path2" d="M298.320 146.136 C 298.697 146.747,296.957 151.177,294.360 156.217 C 292.902 159.045,291.407 162.426,291.550 162.570 C 291.590 162.610,293.303 162.034,295.355 161.291 C 305.378 157.663,310.259 156.884,314.570 158.226 C 315.191 158.419,315.699 158.500,315.699 158.405 C 315.699 158.311,315.622 158.233,315.529 158.233 C 315.436 158.233,314.378 157.527,313.177 156.663 C 311.976 155.800,309.611 154.099,307.921 152.884 C 303.904 149.996,301.416 148.184,301.296 148.060 C 301.243 148.005,300.639 147.577,299.952 147.108 C 299.265 146.640,298.675 146.186,298.640 146.100 C 298.605 146.014,298.491 145.943,298.388 145.943 C 298.285 145.943,298.255 146.030,298.320 146.136 M310.140 160.254 C 304.978 161.165,300.459 162.411,295.727 164.229 C 293.225 165.190,293.343 165.064,293.686 166.416 C 294.641 170.182,294.840 175.998,294.104 178.634 C 292.926 182.853,291.166 185.243,285.970 189.678 L 283.607 191.696 284.146 192.027 C 284.675 192.351,284.698 192.347,285.303 191.822 C 286.458 190.819,288.151 189.770,291.030 188.274 C 295.132 186.140,295.919 185.616,295.919 185.016 C 295.919 181.945,300.405 180.801,301.971 183.473 C 303.500 186.081,300.569 189.548,297.998 188.172 C 297.274 187.785,294.276 189.105,289.529 191.903 L 286.884 193.462 287.528 193.685 C 288.646 194.072,291.296 195.458,294.348 197.251 C 297.592 199.158,299.566 200.124,301.534 200.770 L 302.828 201.194 303.838 200.321 C 306.186 198.293,310.969 193.278,312.936 190.783 C 317.126 185.467,318.671 183.329,318.901 182.525 C 319.226 181.391,319.208 181.277,318.697 181.253 C 318.421 181.240,318.108 181.207,318.003 181.181 C 317.897 181.155,317.687 181.122,317.536 181.109 C 317.385 181.096,317.224 180.891,317.178 180.653 C 317.095 180.222,317.095 180.222,317.069 180.641 C 317.047 180.991,316.890 181.083,316.131 181.188 C 315.629 181.258,314.441 181.486,313.490 181.695 C 307.436 183.026,305.559 183.245,303.361 182.882 C 302.187 182.688,302.671 181.196,304.479 179.431 C 305.744 178.195,310.854 175.524,311.128 175.955 C 311.235 176.124,311.277 176.109,311.279 175.900 C 311.280 175.741,311.690 175.396,312.189 175.132 C 313.084 174.659,315.579 172.330,316.190 171.397 C 316.522 170.890,316.262 169.786,315.544 168.651 C 315.393 168.413,315.334 168.219,315.412 168.219 C 315.490 168.219,315.468 168.111,315.364 167.979 C 314.831 167.306,313.908 163.585,313.672 161.162 C 313.512 159.520,313.833 159.602,310.140 160.254 M292.895 172.156 C 292.897 172.578,292.937 172.728,292.983 172.489 C 293.029 172.250,293.027 171.905,292.979 171.721 C 292.931 171.538,292.893 171.733,292.895 172.156 M153.807 173.644 C 151.380 175.280,152.206 178.888,155.062 179.124 C 158.368 179.399,159.660 175.528,156.891 173.644 C 156.029 173.057,154.678 173.057,153.807 173.644 M247.039 180.797 C 247.039 184.916,247.064 186.574,247.095 184.481 C 247.126 182.388,247.126 179.018,247.095 176.992 C 247.064 174.965,247.039 176.678,247.039 180.797 M322.762 173.738 C 323.320 173.776,324.184 173.776,324.682 173.737 C 325.181 173.697,324.724 173.665,323.668 173.666 C 322.612 173.666,322.204 173.699,322.762 173.738 M183.624 189.678 C 183.677 205.442,183.681 205.579,184.097 206.792 C 185.660 211.356,189.085 213.642,193.373 212.986 C 194.704 212.782,196.639 212.259,196.639 212.103 C 196.639 212.073,196.518 211.757,196.369 211.401 C 196.220 211.045,196.086 210.690,196.072 210.613 C 195.849 209.424,195.447 209.116,194.665 209.535 C 193.253 210.290,190.790 209.830,189.483 208.566 C 187.534 206.681,187.474 206.373,187.323 197.504 L 187.205 190.590 190.626 190.651 L 194.047 190.711 193.985 189.066 L 193.923 187.422 190.576 187.422 L 187.230 187.422 187.230 180.605 L 187.230 173.788 185.400 173.788 L 183.571 173.788 183.624 189.678 M201.910 173.958 C 201.862 174.006,201.825 182.845,201.828 193.600 L 201.834 213.154 203.642 213.154 C 204.637 213.154,205.499 213.075,205.559 212.978 C 205.699 212.751,205.700 174.143,205.560 174.003 C 205.432 173.874,202.035 173.833,201.910 173.958 M121.689 174.604 C 121.446 176.088,121.647 212.973,121.899 213.129 C 122.139 213.277,125.143 213.280,125.290 213.132 C 125.330 213.091,125.408 209.515,125.462 205.185 C 125.558 197.620,125.611 196.292,125.859 195.343 C 125.921 195.106,126.013 194.717,126.062 194.479 C 126.199 193.825,126.976 192.223,127.157 192.223 C 127.245 192.223,127.316 192.092,127.316 191.931 C 127.316 191.061,131.235 188.077,132.136 188.263 C 132.199 188.276,132.406 188.157,132.597 187.998 C 133.225 187.476,136.553 187.534,138.152 188.095 C 140.169 188.802,141.785 190.639,142.206 192.703 C 142.270 193.020,142.375 193.495,142.440 193.759 C 142.504 194.023,142.584 198.344,142.617 203.361 C 142.691 214.445,142.495 213.346,144.397 213.346 C 146.746 213.346,146.563 214.162,146.437 204.246 C 146.377 199.587,146.289 195.430,146.242 195.007 C 146.031 193.141,145.946 192.638,145.666 191.593 C 145.503 190.982,145.194 190.140,144.980 189.720 C 144.766 189.301,144.635 188.958,144.689 188.958 C 144.808 188.958,144.375 188.412,143.351 187.268 C 140.539 184.130,135.011 183.171,131.109 185.145 C 130.713 185.346,130.388 185.443,130.386 185.362 C 130.384 185.280,130.319 185.300,130.242 185.406 C 130.164 185.511,129.599 185.936,128.985 186.349 C 128.371 186.763,127.367 187.649,126.754 188.318 C 125.312 189.891,125.375 189.957,125.397 186.894 C 125.407 185.442,125.411 181.942,125.406 179.117 L 125.396 173.980 123.594 173.980 L 121.791 173.980 121.689 174.604 M311.538 178.395 C 311.560 178.719,311.693 178.885,311.954 178.912 C 312.230 178.940,312.247 178.923,312.014 178.854 C 311.835 178.801,311.648 178.568,311.598 178.337 C 311.522 177.985,311.512 177.994,311.538 178.395 M317.279 178.781 C 317.279 179.150,317.319 179.301,317.367 179.117 C 317.415 178.932,317.415 178.629,317.367 178.445 C 317.319 178.260,317.279 178.411,317.279 178.781 M291.023 182.045 C 290.859 182.362,290.768 182.621,290.821 182.621 C 290.873 182.621,291.051 182.362,291.215 182.045 C 291.378 181.728,291.469 181.469,291.416 181.469 C 291.364 181.469,291.186 181.728,291.023 182.045 M289.808 184.013 C 289.350 184.694,289.231 184.950,289.532 184.604 C 290.056 184.002,290.822 182.813,290.686 182.813 C 290.647 182.813,290.252 183.353,289.808 184.013 M168.684 183.738 C 164.568 184.961,162.360 189.258,163.781 193.279 C 164.005 193.913,164.210 194.515,164.235 194.618 C 164.261 194.720,164.520 195.066,164.811 195.386 C 165.102 195.706,165.382 196.100,165.435 196.262 C 165.487 196.424,165.768 196.697,166.058 196.869 C 166.349 197.041,166.775 197.341,167.004 197.535 C 167.550 197.995,169.913 199.331,172.010 200.364 C 172.247 200.481,172.441 200.641,172.442 200.720 C 172.443 200.799,172.573 200.864,172.732 200.864 C 172.890 200.864,173.020 200.956,173.020 201.068 C 173.020 201.179,173.096 201.224,173.188 201.167 C 173.410 201.030,175.184 202.929,175.045 203.154 C 174.986 203.250,175.039 203.362,175.163 203.403 C 175.956 203.667,175.373 206.756,174.312 207.907 C 173.084 209.239,169.179 210.499,169.179 209.563 C 169.179 209.461,169.071 209.368,168.939 209.356 C 167.581 209.233,166.740 208.803,165.424 207.558 L 164.430 206.618 163.684 207.368 C 163.274 207.781,162.746 208.380,162.512 208.700 L 162.085 209.283 163.233 210.345 C 167.592 214.380,174.905 213.880,177.653 209.358 C 177.892 208.964,178.136 208.598,178.194 208.545 C 178.253 208.493,178.329 208.320,178.365 208.161 C 178.400 208.003,178.559 207.366,178.718 206.746 C 179.194 204.886,178.769 201.996,177.840 200.785 C 177.122 199.849,175.419 198.337,174.356 197.691 C 173.727 197.309,173.212 196.936,173.212 196.863 C 173.212 196.789,172.801 196.583,172.300 196.405 C 169.366 195.360,166.683 192.678,166.683 190.792 C 166.683 188.086,170.195 186.008,172.751 187.202 C 174.438 187.991,175.049 188.354,175.769 188.996 C 176.678 189.806,176.619 189.825,178.142 188.205 L 178.944 187.352 178.533 186.855 C 176.462 184.356,171.691 182.846,168.684 183.738 M223.332 183.686 C 222.540 183.837,221.703 183.981,221.473 184.004 C 221.243 184.028,221.088 184.100,221.127 184.164 C 221.167 184.228,220.794 184.429,220.297 184.610 C 219.801 184.790,218.920 185.284,218.339 185.705 C 217.758 186.127,217.067 186.612,216.803 186.781 C 216.162 187.193,214.093 189.945,213.437 191.258 C 212.647 192.840,212.131 194.376,211.890 195.871 C 211.781 196.540,211.795 200.070,211.908 200.768 C 211.960 201.085,212.037 201.569,212.080 201.844 C 212.267 203.037,213.482 205.682,214.669 207.480 C 215.721 209.072,219.257 212.002,220.127 212.002 C 220.263 212.002,220.457 212.077,220.557 212.169 C 221.270 212.824,226.708 213.301,229.285 212.935 C 230.900 212.706,234.786 211.130,235.014 210.611 C 235.049 210.531,235.157 210.466,235.254 210.466 C 235.350 210.466,235.584 210.314,235.773 210.130 C 235.962 209.945,236.421 209.530,236.792 209.208 C 237.790 208.343,239.846 205.345,239.846 204.755 C 239.846 204.577,237.327 203.169,237.009 203.169 C 236.900 203.169,236.582 203.557,236.304 204.033 C 236.025 204.508,235.715 204.897,235.614 204.897 C 235.512 204.897,235.430 205.018,235.430 205.166 C 235.430 205.461,232.555 208.231,232.404 208.080 C 232.353 208.029,232.192 208.107,232.046 208.253 C 231.220 209.079,227.508 209.958,225.559 209.789 C 219.849 209.294,216.043 205.376,215.548 199.484 L 215.473 198.585 228.063 198.584 C 234.988 198.584,240.697 198.541,240.749 198.489 C 241.069 198.169,240.599 195.003,239.928 192.966 C 239.246 190.892,237.149 187.661,236.037 186.968 C 235.890 186.877,235.623 186.655,235.443 186.476 C 235.122 186.154,232.878 184.734,232.692 184.734 C 232.639 184.734,232.262 184.594,231.853 184.423 C 231.444 184.252,231.089 184.114,231.066 184.117 C 231.042 184.119,230.437 183.973,229.721 183.791 C 228.082 183.374,225.206 183.326,223.332 183.686 M113.551 185.022 C 113.549 185.127,113.237 185.905,112.858 186.750 C 112.478 187.595,111.677 189.453,111.078 190.879 C 110.479 192.304,109.894 193.644,109.778 193.855 C 109.662 194.066,109.561 194.282,109.554 194.335 C 109.509 194.661,108.808 196.255,108.710 196.255 C 108.645 196.255,108.477 196.623,108.337 197.072 C 108.198 197.520,107.846 198.406,107.554 199.040 C 107.263 199.674,106.558 201.294,105.988 202.640 C 105.419 203.987,104.902 205.089,104.841 205.089 C 104.780 205.089,104.143 203.728,103.425 202.064 C 102.708 200.401,101.996 198.802,101.842 198.512 C 101.688 198.221,101.632 197.982,101.717 197.981 C 101.803 197.979,101.784 197.914,101.676 197.837 C 101.568 197.759,100.973 196.529,100.353 195.103 C 99.733 193.677,99.031 192.079,98.793 191.551 C 97.298 188.235,96.015 185.260,96.015 185.106 C 96.015 184.302,95.091 185.045,94.508 186.318 C 93.636 188.219,93.205 189.180,92.741 190.254 C 92.525 190.756,92.190 191.512,91.998 191.935 C 91.805 192.357,91.280 193.567,90.831 194.623 C 90.381 195.679,89.736 197.148,89.396 197.888 C 89.057 198.627,88.193 200.571,87.477 202.208 C 86.761 203.845,86.153 205.210,86.127 205.240 C 86.101 205.271,85.839 204.709,85.546 203.992 C 85.253 203.275,84.858 202.343,84.668 201.920 C 83.959 200.341,78.925 188.355,78.925 188.245 C 78.925 188.183,78.699 187.653,78.422 187.070 C 78.146 186.486,77.900 185.916,77.875 185.803 C 77.691 184.962,77.598 184.926,75.619 184.926 C 73.949 184.926,73.714 184.965,73.815 185.228 C 74.039 185.812,76.484 191.560,76.913 192.511 C 77.151 193.039,77.885 194.767,78.543 196.351 C 79.201 197.936,79.975 199.750,80.261 200.384 C 80.548 201.018,81.675 203.653,82.764 206.241 C 85.723 213.265,85.669 213.154,86.118 213.153 C 86.440 213.151,86.763 212.578,87.932 209.936 C 88.714 208.168,89.647 206.073,90.006 205.281 C 91.061 202.948,91.172 202.701,93.269 197.984 C 94.372 195.502,95.343 193.401,95.426 193.315 C 95.510 193.230,96.120 194.396,96.784 195.908 C 97.447 197.419,98.186 199.088,98.426 199.616 C 100.322 203.784,103.889 211.928,103.890 212.090 C 103.890 212.200,104.085 212.532,104.322 212.827 C 104.953 213.614,105.204 213.310,106.584 210.082 C 107.239 208.550,107.851 207.215,107.944 207.115 C 108.037 207.014,108.113 206.818,108.113 206.677 C 108.113 206.537,108.416 205.785,108.785 205.006 C 109.155 204.227,109.458 203.538,109.458 203.476 C 109.458 203.413,109.720 202.778,110.041 202.065 C 110.363 201.352,110.778 200.422,110.965 200.000 C 111.151 199.578,111.580 198.667,111.917 197.976 C 112.254 197.285,112.530 196.610,112.530 196.475 C 112.530 196.340,112.634 196.041,112.761 195.811 C 112.888 195.580,113.008 195.305,113.028 195.199 C 113.071 194.972,115.765 188.776,115.947 188.485 C 116.016 188.376,116.089 188.174,116.110 188.037 C 116.130 187.900,116.414 187.236,116.739 186.561 C 117.540 184.900,117.587 184.959,115.442 184.890 C 114.272 184.853,113.552 184.903,113.551 185.022 M153.569 185.118 C 153.510 185.344,153.511 187.941,153.573 190.887 C 153.676 195.859,153.660 196.254,153.350 196.373 C 153.148 196.450,153.096 196.550,153.219 196.626 C 153.354 196.710,153.439 199.451,153.475 204.905 L 153.529 213.058 155.402 213.113 L 157.276 213.168 157.226 198.999 L 157.177 184.830 155.427 184.768 C 153.774 184.710,153.670 184.729,153.569 185.118 M287.557 186.702 L 286.798 187.518 287.614 186.759 C 288.373 186.053,288.518 185.886,288.373 185.886 C 288.342 185.886,287.974 186.253,287.557 186.702 M251.789 187.689 C 251.251 188.258,250.770 188.626,250.720 188.505 C 250.671 188.385,250.624 188.432,250.615 188.610 C 250.606 188.817,250.735 188.924,250.971 188.906 C 251.175 188.891,251.294 188.802,251.236 188.708 C 251.178 188.614,251.548 188.114,252.058 187.596 C 252.569 187.078,252.937 186.654,252.877 186.654 C 252.817 186.654,252.328 187.120,251.789 187.689 M229.285 187.398 C 230.704 187.807,232.357 188.570,232.357 188.816 C 232.357 188.907,232.438 188.931,232.536 188.870 C 232.634 188.810,232.837 188.934,232.985 189.146 C 233.134 189.358,233.302 189.486,233.358 189.430 C 233.845 188.943,236.261 192.869,236.250 194.128 C 236.245 194.737,236.288 194.889,236.390 194.623 C 236.525 194.274,236.551 194.288,236.679 194.776 C 236.839 195.387,236.651 195.714,236.382 195.290 C 236.263 195.101,236.203 195.087,236.201 195.245 C 236.198 195.432,233.997 195.481,226.020 195.472 C 220.422 195.466,215.843 195.395,215.843 195.314 C 215.843 195.233,215.902 195.107,215.976 195.034 C 216.049 194.961,216.136 194.720,216.170 194.499 C 216.312 193.570,217.887 190.933,218.908 189.915 C 221.453 187.378,225.671 186.355,229.285 187.398 M272.801 188.430 C 272.864 188.615,272.978 188.766,273.053 188.766 C 273.128 188.766,273.377 189.101,273.607 189.509 C 273.836 189.918,274.171 190.372,274.350 190.518 C 274.638 190.752,274.635 190.714,274.326 190.185 C 273.864 189.395,272.652 188.001,272.801 188.430 M254.095 189.582 C 253.566 190.110,253.438 190.162,253.270 189.918 C 253.114 189.692,253.096 189.719,253.188 190.046 C 253.271 190.345,253.182 190.548,252.869 190.766 C 252.630 190.934,252.522 191.071,252.628 191.071 C 252.735 191.071,253.291 190.595,253.865 190.014 C 254.438 189.434,254.866 188.958,254.815 188.958 C 254.763 188.958,254.440 189.239,254.095 189.582 M269.227 189.751 C 269.227 190.079,270.351 190.886,270.485 190.654 C 270.566 190.514,270.560 190.464,270.471 190.545 C 270.383 190.626,270.066 190.458,269.768 190.173 C 269.471 189.888,269.227 189.698,269.227 189.751 M327.067 190.637 C 327.985 190.672,329.541 190.673,330.523 190.638 C 331.505 190.603,330.754 190.574,328.853 190.574 C 326.952 190.574,326.148 190.602,327.067 190.637 M274.490 191.100 C 274.405 191.238,274.437 191.270,274.574 191.185 C 274.774 191.062,274.832 191.181,274.777 191.599 C 274.766 191.678,274.673 191.719,274.570 191.690 C 274.468 191.661,274.439 191.727,274.507 191.837 C 274.575 191.947,274.721 191.981,274.831 191.913 C 275.110 191.741,275.384 192.241,275.262 192.703 C 275.173 193.045,275.184 193.051,275.369 192.756 C 275.529 192.503,275.485 192.244,275.183 191.652 C 274.755 190.813,274.696 190.766,274.490 191.100 M271.361 192.648 C 271.462 192.837,271.600 192.991,271.666 192.991 C 271.733 192.991,271.731 192.934,271.661 192.865 C 271.592 192.795,271.616 192.641,271.715 192.522 C 271.837 192.374,271.780 192.305,271.536 192.305 C 271.252 192.305,271.216 192.376,271.361 192.648 M251.567 192.786 C 251.324 193.241,251.312 193.432,251.537 193.293 C 251.707 193.189,251.971 192.415,251.837 192.415 C 251.798 192.415,251.676 192.582,251.567 192.786 M251.029 193.951 C 250.903 194.152,250.875 194.364,250.966 194.420 C 251.058 194.477,251.182 194.333,251.243 194.101 C 251.387 193.550,251.312 193.497,251.029 193.951 M275.975 194.143 C 275.975 194.301,276.049 194.604,276.140 194.815 C 276.244 195.057,276.305 195.093,276.305 194.911 C 276.305 194.753,276.231 194.450,276.140 194.239 C 276.036 193.997,275.975 193.962,275.975 194.143 M279.021 194.997 C 279.021 195.055,279.322 195.522,279.690 196.035 C 281.071 197.957,281.339 198.839,281.457 201.869 C 281.556 204.423,281.174 209.444,280.806 210.402 C 280.586 210.975,283.678 209.889,288.266 207.781 C 289.813 207.070,291.366 206.432,291.716 206.362 L 292.353 206.234 291.688 206.958 L 291.023 207.681 291.744 207.018 C 292.311 206.497,292.414 206.307,292.225 206.136 C 292.092 206.015,291.335 205.375,290.542 204.712 C 289.750 204.049,288.912 203.322,288.679 203.097 C 288.446 202.872,287.979 202.472,287.641 202.208 C 287.026 201.728,286.591 201.360,281.661 197.148 C 280.209 195.907,279.021 194.939,279.021 194.997 M283.053 194.977 C 283.053 195.865,294.468 203.094,296.636 203.579 C 297.200 203.706,297.570 203.866,297.458 203.935 C 297.346 204.004,297.689 204.055,298.219 204.047 C 298.750 204.039,299.184 204.015,299.184 203.994 C 299.185 203.738,295.682 201.562,292.847 200.057 C 291.949 199.580,290.093 198.556,288.723 197.780 C 287.353 197.005,285.630 196.125,284.894 195.826 C 284.158 195.527,283.443 195.188,283.305 195.073 C 283.167 194.958,283.053 194.915,283.053 194.977 M272.687 196.591 C 272.689 196.976,272.736 197.046,272.861 196.849 C 272.955 196.700,272.988 196.462,272.933 196.321 C 272.778 195.915,272.683 196.018,272.687 196.591 M276.569 197.600 C 276.569 197.969,276.608 198.120,276.657 197.936 C 276.705 197.751,276.705 197.448,276.657 197.264 C 276.608 197.079,276.569 197.230,276.569 197.600 M250.460 198.176 C 250.460 198.651,250.498 198.845,250.544 198.608 C 250.589 198.370,250.589 197.981,250.544 197.744 C 250.498 197.506,250.460 197.700,250.460 198.176 M321.696 204.321 C 321.696 204.690,321.736 204.842,321.784 204.657 C 321.832 204.472,321.832 204.169,321.784 203.985 C 321.736 203.800,321.696 203.951,321.696 204.321 M293.592 204.374 C 293.684 204.467,294.008 204.512,294.312 204.474 C 294.819 204.411,294.806 204.397,294.143 204.306 C 293.730 204.248,293.495 204.278,293.592 204.374 M253.961 206.625 C 254.481 207.153,254.950 207.585,255.002 207.585 C 255.055 207.585,254.673 207.153,254.153 206.625 C 253.633 206.097,253.164 205.665,253.111 205.665 C 253.058 205.665,253.440 206.097,253.961 206.625 M255.907 208.255 C 255.967 208.414,256.088 208.500,256.174 208.446 C 256.260 208.393,256.445 208.459,256.586 208.592 C 256.726 208.725,257.014 208.863,257.225 208.900 C 257.726 208.986,257.593 208.873,256.607 208.376 C 255.978 208.059,255.821 208.032,255.907 208.255 M250.984 208.797 C 250.984 208.831,251.265 209.111,251.608 209.422 L 252.232 209.986 251.668 209.361 C 251.143 208.780,250.984 208.649,250.984 208.797 M260.010 209.581 C 260.010 209.622,260.306 209.690,260.668 209.732 C 261.030 209.775,261.285 209.741,261.233 209.657 C 261.140 209.507,260.010 209.436,260.010 209.581 M262.460 209.641 C 262.699 209.687,263.045 209.686,263.228 209.637 C 263.412 209.589,263.217 209.552,262.794 209.554 C 262.372 209.556,262.221 209.595,262.460 209.641 M259.794 213.016 C 259.887 213.108,260.211 213.153,260.514 213.115 C 261.022 213.052,261.009 213.039,260.346 212.947 C 259.933 212.890,259.698 212.919,259.794 213.016 M263.059 213.016 C 263.152 213.108,263.476 213.153,263.779 213.115 C 264.286 213.052,264.273 213.039,263.610 212.947 C 263.198 212.890,262.962 212.919,263.059 213.016 " stroke="none" fill="#6ca427" fill-rule="evenodd"></path><path id="path3" d="M247.035 193.567 C 247.035 196.155,247.062 197.213,247.095 195.919 C 247.128 194.626,247.128 192.508,247.095 191.215 C 247.062 189.921,247.035 190.979,247.035 193.567 " stroke="none" fill="#999933" fill-rule="evenodd"></path><path id="path4" d="M185.403 173.736 L 187.225 173.802 187.279 180.564 L 187.333 187.326 187.330 180.509 L 187.326 173.692 185.453 173.681 L 183.580 173.670 185.403 173.736 M121.629 174.065 C 121.571 174.217,121.563 174.498,121.613 174.689 C 121.673 174.919,121.710 174.860,121.725 174.515 L 121.747 173.994 123.620 173.931 L 125.492 173.868 123.614 173.828 C 122.128 173.796,121.713 173.846,121.629 174.065 M203.120 173.923 C 203.358 173.969,203.747 173.969,203.985 173.923 C 204.222 173.878,204.028 173.840,203.553 173.840 C 203.077 173.840,202.883 173.878,203.120 173.923 M155.017 179.297 C 155.202 179.345,155.504 179.345,155.689 179.297 C 155.874 179.249,155.723 179.209,155.353 179.209 C 154.983 179.209,154.832 179.249,155.017 179.297 M298.320 181.991 C 297.234 182.255,295.919 183.911,295.919 185.016 C 295.919 185.617,295.130 186.142,291.023 188.276 C 288.209 189.738,285.731 191.300,285.073 192.027 C 284.758 192.375,284.784 192.409,285.717 192.882 C 286.973 193.519,286.688 193.590,289.445 191.948 C 294.002 189.234,297.279 187.787,297.998 188.172 C 299.194 188.812,301.254 188.080,302.009 186.746 C 303.432 184.234,301.157 181.302,298.320 181.991 M74.946 184.875 C 75.451 184.915,76.228 184.914,76.674 184.874 C 77.120 184.834,76.707 184.801,75.756 184.802 C 74.806 184.802,74.441 184.835,74.946 184.875 M113.615 184.878 C 113.566 184.957,114.058 184.997,114.708 184.968 C 116.696 184.878,116.932 184.793,115.278 184.762 C 114.413 184.747,113.665 184.798,113.615 184.878 M165.422 185.550 L 164.858 186.174 165.482 185.610 C 165.826 185.300,166.107 185.019,166.107 184.986 C 166.107 184.837,165.948 184.968,165.422 185.550 M170.475 186.981 C 170.713 187.027,171.102 187.027,171.339 186.981 C 171.577 186.936,171.383 186.898,170.907 186.898 C 170.432 186.898,170.238 186.936,170.475 186.981 M127.016 187.854 L 126.452 188.478 127.076 187.914 C 127.420 187.604,127.700 187.323,127.700 187.290 C 127.700 187.142,127.542 187.272,127.016 187.854 M194.018 188.958 C 194.018 189.856,194.051 190.223,194.092 189.774 C 194.132 189.325,194.132 188.591,194.092 188.142 C 194.051 187.693,194.018 188.060,194.018 188.958 M153.514 192.319 C 153.514 194.537,153.542 195.418,153.576 194.277 C 153.610 193.136,153.610 191.321,153.576 190.244 C 153.542 189.167,153.514 190.101,153.514 192.319 M218.810 189.966 L 218.051 190.783 218.867 190.023 C 219.626 189.317,219.771 189.150,219.626 189.150 C 219.595 189.150,219.227 189.518,218.810 189.966 M233.989 190.110 C 234.402 190.533,234.783 190.879,234.836 190.879 C 234.888 190.879,234.594 190.533,234.181 190.110 C 233.769 189.688,233.388 189.342,233.335 189.342 C 233.283 189.342,233.577 189.688,233.989 190.110 M128.458 190.446 L 127.796 191.167 128.517 190.505 C 129.187 189.889,129.325 189.726,129.178 189.726 C 129.146 189.726,128.822 190.050,128.458 190.446 M163.286 190.975 C 163.287 191.608,163.323 191.844,163.365 191.499 C 163.408 191.154,163.407 190.636,163.363 190.347 C 163.320 190.058,163.285 190.341,163.286 190.975 M187.265 193.423 C 187.301 196.391,187.375 196.041,187.467 192.462 C 187.495 191.380,187.453 190.494,187.374 190.494 C 187.295 190.494,187.246 191.812,187.265 193.423 M236.352 194.655 C 236.240 195.084,236.359 195.487,236.598 195.487 C 236.818 195.487,236.823 194.901,236.606 194.559 C 236.479 194.360,236.423 194.381,236.352 194.655 M142.535 195.391 C 142.537 195.814,142.577 195.964,142.623 195.725 C 142.669 195.486,142.667 195.141,142.619 194.957 C 142.571 194.773,142.533 194.969,142.535 195.391 M217.715 195.438 C 218.481 195.474,219.734 195.474,220.499 195.438 C 221.265 195.401,220.639 195.372,219.107 195.372 C 217.576 195.372,216.949 195.401,217.715 195.438 M222.612 195.435 C 223.008 195.477,223.656 195.477,224.052 195.435 C 224.448 195.394,224.124 195.360,223.332 195.360 C 222.540 195.360,222.216 195.394,222.612 195.435 M228.373 195.439 C 229.825 195.471,232.201 195.471,233.653 195.439 C 235.106 195.406,233.917 195.379,231.013 195.379 C 228.108 195.379,226.920 195.406,228.373 195.439 M307.341 197.072 L 305.617 198.848 307.393 197.124 C 308.370 196.175,309.169 195.376,309.169 195.347 C 309.169 195.208,308.943 195.422,307.341 197.072 M211.681 198.464 C 211.682 199.203,211.716 199.482,211.758 199.084 C 211.800 198.685,211.799 198.080,211.756 197.739 C 211.714 197.398,211.680 197.724,211.681 198.464 M240.822 198.112 C 240.813 198.341,240.699 198.571,240.566 198.625 C 240.378 198.700,240.380 198.725,240.573 198.737 C 240.864 198.755,241.076 198.291,240.936 197.942 C 240.881 197.806,240.830 197.883,240.822 198.112 M125.444 199.232 C 125.447 199.654,125.486 199.805,125.532 199.566 C 125.578 199.327,125.576 198.981,125.528 198.798 C 125.480 198.614,125.442 198.809,125.444 199.232 M215.458 198.725 C 215.458 198.816,215.675 198.849,215.939 198.799 C 216.203 198.748,216.419 198.674,216.419 198.633 C 216.419 198.593,216.203 198.560,215.939 198.560 C 215.675 198.560,215.458 198.634,215.458 198.725 M216.947 198.695 C 217.184 198.741,217.573 198.741,217.811 198.695 C 218.048 198.650,217.854 198.612,217.379 198.612 C 216.904 198.612,216.709 198.650,216.947 198.695 M220.595 198.703 C 221.467 198.738,222.892 198.738,223.764 198.703 C 224.635 198.667,223.922 198.638,222.180 198.638 C 220.437 198.638,219.724 198.667,220.595 198.703 M230.389 198.703 C 232.105 198.735,234.914 198.735,236.630 198.703 C 238.346 198.672,236.942 198.646,233.509 198.646 C 230.077 198.646,228.673 198.672,230.389 198.703 M163.502 207.441 L 162.938 208.065 163.562 207.501 C 163.905 207.191,164.186 206.910,164.186 206.877 C 164.186 206.729,164.028 206.859,163.502 207.441 M162.746 210.082 C 163.159 210.504,163.539 210.850,163.592 210.850 C 163.645 210.850,163.351 210.504,162.938 210.082 C 162.526 209.659,162.145 209.313,162.092 209.313 C 162.039 209.313,162.334 209.659,162.746 210.082 M226.164 209.833 C 226.402 209.879,226.791 209.879,227.028 209.833 C 227.266 209.787,227.072 209.750,226.596 209.750 C 226.121 209.750,225.927 209.787,226.164 209.833 " stroke="none" fill="#8cb366" fill-rule="evenodd"></path></g></svg>