<svg id="svg" version="1.1" width="400" height="400" viewBox="0 0 400 400" xmlns="http://www.w3.org/2000/svg" xmlns:xlink="http://www.w3.org/1999/xlink" ><g id="svgg"><path id="path0" d="M297.637 146.567 C 297.231 147.047,287.607 166.299,287.773 166.299 C 287.831 166.299,288.659 166.074,289.613 165.799 C 291.703 165.198,291.556 165.080,292.294 167.945 C 293.665 173.266,292.888 180.278,290.553 183.659 C 289.128 185.722,284.834 189.387,281.939 191.012 C 281.274 191.385,280.755 191.712,280.787 191.738 C 280.819 191.764,284.863 194.010,289.774 196.730 C 294.686 199.449,299.049 201.872,299.472 202.113 L 300.240 202.551 301.413 201.841 L 302.585 201.131 301.252 200.711 C 299.555 200.177,297.035 198.904,293.066 196.579 C 291.339 195.566,289.265 194.468,288.458 194.137 C 286.057 193.155,283.621 191.914,283.641 191.684 C 283.648 191.611,284.441 190.903,285.403 190.110 C 294.112 182.943,296.106 177.297,293.703 166.605 C 293.347 165.023,293.250 165.142,295.662 164.202 C 300.332 162.382,305.216 161.058,310.597 160.150 C 313.584 159.647,315.310 159.199,315.753 158.812 C 315.836 158.740,315.274 158.482,314.505 158.239 C 310.485 156.971,305.268 157.798,295.709 161.221 C 293.479 162.019,291.608 162.628,291.553 162.572 C 291.382 162.402,292.250 160.442,294.675 155.524 C 297.805 149.176,299.328 144.570,297.637 146.567 M247.144 180.605 C 247.144 187.049,247.181 187.998,247.432 187.998 C 247.681 187.998,247.720 188.713,247.720 193.279 C 247.720 198.054,247.689 198.560,247.403 198.560 C 246.571 198.560,247.704 203.444,249.194 206.282 C 249.949 207.717,252.202 210.013,253.642 210.814 L 254.441 211.258 254.441 209.212 L 254.441 207.166 253.369 205.983 C 251.407 203.816,250.249 200.466,250.457 197.552 C 250.529 196.539,250.491 196.255,250.286 196.255 C 250.073 196.255,250.024 195.519,250.024 192.319 C 250.024 188.948,250.065 188.382,250.312 188.382 C 250.563 188.382,250.600 187.411,250.600 180.797 L 250.600 173.212 248.872 173.212 L 247.144 173.212 247.144 180.605 M321.843 189.398 C 321.843 202.690,321.886 205.173,322.133 206.120 C 323.507 211.393,327.786 214.015,332.890 212.710 C 334.884 212.201,334.836 212.278,334.208 210.620 L 333.665 209.190 332.745 209.540 C 329.283 210.855,326.160 208.565,325.496 204.225 C 325.372 203.417,325.311 200.426,325.343 196.735 L 325.396 190.590 328.709 190.538 L 332.021 190.485 332.021 188.954 L 332.021 187.422 328.661 187.422 L 325.300 187.422 325.300 180.605 L 325.300 173.788 323.572 173.788 L 321.843 173.788 321.843 189.398 M308.812 176.791 C 305.259 178.462,303.763 179.718,302.924 181.734 C 302.464 182.841,302.632 182.911,305.675 182.895 C 308.019 182.883,308.619 182.805,311.186 182.181 C 312.770 181.796,314.730 181.382,315.541 181.262 L 317.017 181.042 317.149 179.807 C 317.318 178.227,317.466 178.293,314.579 178.659 C 313.217 178.831,311.972 178.973,311.813 178.973 C 311.603 178.973,311.489 178.669,311.398 177.866 C 311.329 177.258,311.210 176.536,311.133 176.263 L 310.994 175.765 308.812 176.791 M258.351 183.952 C 256.092 184.561,253.505 186.073,251.955 187.691 L 251.293 188.382 253.517 188.382 C 255.591 188.382,255.826 188.343,256.982 187.802 C 260.633 186.093,264.549 186.409,267.899 188.684 C 269.326 189.653,269.364 189.666,269.819 189.345 C 270.074 189.165,270.790 188.812,271.409 188.560 L 272.535 188.102 271.395 187.042 C 268.137 184.013,262.807 182.750,258.351 183.952 M279.309 192.876 C 279.626 193.147,282.811 195.682,286.386 198.509 C 289.962 201.336,293.073 203.804,293.300 203.994 C 293.647 204.285,293.935 204.321,295.151 204.223 C 297.566 204.030,297.684 203.943,296.181 203.465 C 293.752 202.694,288.930 199.677,284.205 195.971 C 282.134 194.347,280.585 193.296,279.405 192.715 L 278.733 192.383 279.309 192.876 M278.513 194.815 C 280.819 202.747,280.438 208.728,277.389 212.471 C 276.911 213.058,276.557 213.538,276.602 213.538 C 276.647 213.538,277.630 213.199,278.786 212.785 C 284.421 210.767,290.863 207.826,291.764 206.861 L 292.312 206.272 291.572 206.440 C 291.164 206.533,290.312 206.860,289.678 207.168 C 286.416 208.751,281.081 210.862,280.871 210.652 C 280.818 210.599,280.898 209.736,281.048 208.735 C 281.778 203.849,281.586 199.641,280.538 197.559 C 279.757 196.005,278.276 193.999,278.513 194.815 M276.159 196.976 L 276.140 198.560 274.508 198.560 L 272.876 198.560 272.876 199.126 C 272.876 202.568,269.959 206.929,266.585 208.534 L 265.194 209.196 265.194 210.983 C 265.194 211.966,265.222 212.770,265.256 212.770 C 268.074 212.770,273.357 208.496,275.107 204.801 C 276.270 202.345,276.873 198.215,276.368 196.159 C 276.195 195.456,276.177 195.525,276.159 196.976 " stroke="none" fill="#28a100" fill-rule="evenodd"></path><path id="path1" d="M310.077 157.604 C 310.418 157.646,311.023 157.647,311.422 157.605 C 311.820 157.564,311.541 157.529,310.802 157.528 C 310.062 157.527,309.736 157.561,310.077 157.604 M294.635 173.692 C 294.636 174.325,294.672 174.562,294.714 174.216 C 294.757 173.871,294.756 173.353,294.712 173.064 C 294.669 172.776,294.634 173.058,294.635 173.692 M250.645 180.749 C 250.606 187.386,250.563 188.382,250.312 188.382 C 250.065 188.382,250.024 188.948,250.024 192.319 C 250.024 196.813,250.214 197.309,250.960 194.767 C 251.696 192.262,253.128 190.186,254.955 188.976 L 255.851 188.382 253.417 188.382 C 251.623 188.382,250.972 188.445,250.939 188.622 C 250.915 188.754,250.848 185.319,250.792 180.989 L 250.690 173.116 250.645 180.749 M321.743 189.150 C 321.743 197.652,321.767 201.131,321.795 196.880 C 321.824 192.628,321.824 185.672,321.795 181.421 C 321.767 177.170,321.743 180.648,321.743 189.150 M325.387 180.605 C 325.387 184.407,325.412 185.990,325.444 184.122 C 325.475 182.254,325.475 179.143,325.444 177.209 C 325.412 175.274,325.387 176.803,325.387 180.605 M316.851 178.344 C 317.009 178.405,317.202 178.549,317.280 178.665 C 317.367 178.796,317.422 178.748,317.424 178.541 C 317.426 178.315,317.285 178.209,316.995 178.220 C 316.706 178.230,316.658 178.271,316.851 178.344 M311.477 178.637 C 311.474 178.902,311.624 178.967,312.194 178.944 C 312.847 178.918,312.861 178.907,312.339 178.831 C 312.022 178.784,311.699 178.646,311.621 178.523 C 311.529 178.379,311.479 178.418,311.477 178.637 M290.764 182.624 C 290.305 183.448,289.490 184.627,288.953 185.244 L 287.977 186.366 288.989 185.406 C 290.177 184.278,290.926 183.233,291.382 182.069 C 291.881 180.793,291.686 180.969,290.764 182.624 M261.216 183.531 C 261.720 183.570,262.498 183.570,262.944 183.530 C 263.390 183.489,262.976 183.457,262.026 183.458 C 261.075 183.458,260.711 183.491,261.216 183.531 M289.390 186.558 C 288.924 187.033,288.585 187.422,288.638 187.422 C 288.691 187.422,289.116 187.033,289.582 186.558 C 290.049 186.083,290.387 185.694,290.334 185.694 C 290.282 185.694,289.857 186.083,289.390 186.558 M261.117 186.793 C 261.462 186.836,261.981 186.835,262.269 186.791 C 262.558 186.747,262.276 186.712,261.642 186.713 C 261.008 186.714,260.772 186.750,261.117 186.793 M271.775 187.339 L 272.498 188.117 271.391 188.571 C 269.160 189.485,269.134 189.534,270.196 190.810 C 271.711 192.629,272.853 195.551,272.869 197.648 L 272.876 198.560 274.489 198.560 L 276.102 198.560 276.182 196.783 C 276.244 195.383,276.180 194.743,275.877 193.759 C 275.665 193.072,275.480 192.468,275.464 192.415 C 275.135 191.304,272.995 188.312,271.689 187.135 C 271.131 186.632,271.142 186.657,271.775 187.339 M332.059 188.906 L 332.021 190.485 328.709 190.538 L 325.396 190.590 325.392 197.024 L 325.388 203.457 325.443 197.072 L 325.497 190.687 328.765 190.687 C 332.512 190.687,332.262 190.829,332.164 188.748 L 332.097 187.326 332.059 188.906 M247.091 188.114 C 246.935 188.271,246.908 197.840,247.063 198.243 C 247.130 198.417,247.305 198.560,247.452 198.560 C 247.674 198.560,247.720 197.665,247.720 193.279 C 247.720 188.033,247.660 187.545,247.091 188.114 M250.463 197.696 C 250.464 198.224,250.502 198.417,250.546 198.125 C 250.590 197.833,250.589 197.401,250.543 197.165 C 250.498 196.929,250.462 197.168,250.463 197.696 M254.404 209.127 L 254.463 211.394 255.652 211.870 C 256.671 212.278,257.532 212.557,258.857 212.912 C 259.406 213.058,264.141 213.057,264.666 212.910 L 265.194 212.763 265.194 210.922 C 265.194 209.246,265.164 209.092,264.858 209.212 C 262.119 210.287,257.233 209.399,254.977 207.416 L 254.345 206.860 254.404 209.127 M250.592 208.401 C 251.388 209.249,251.560 209.402,251.560 209.257 C 251.560 209.227,251.150 208.816,250.648 208.345 L 249.736 207.489 250.592 208.401 M324.724 210.946 C 325.082 211.315,325.419 211.618,325.471 211.618 C 325.524 211.618,325.274 211.315,324.916 210.946 C 324.558 210.576,324.221 210.274,324.169 210.274 C 324.116 210.274,324.366 210.576,324.724 210.946 M276.747 213.026 C 276.327 213.460,276.222 213.666,276.422 213.666 C 276.584 213.666,276.672 213.622,276.618 213.567 C 276.563 213.513,276.752 213.225,277.038 212.927 C 277.323 212.630,277.514 212.386,277.462 212.386 C 277.410 212.386,277.089 212.674,276.747 213.026 " stroke="none" fill="#3ab212" fill-rule="evenodd"></path><path id="path2" d="M298.338 146.209 C 298.635 146.984,297.264 150.508,294.475 156.139 C 293.188 158.737,291.999 161.260,291.834 161.747 L 291.532 162.633 293.390 161.949 C 304.547 157.846,310.321 156.776,314.237 158.086 C 315.070 158.365,315.675 158.524,315.581 158.439 C 315.289 158.175,311.050 155.101,309.897 154.317 C 309.294 153.907,308.644 153.432,308.452 153.262 C 308.261 153.092,307.674 152.653,307.149 152.286 C 306.623 151.920,306.107 151.551,306.001 151.467 C 305.895 151.383,304.210 150.177,302.256 148.785 C 300.302 147.394,298.675 146.185,298.640 146.100 C 298.527 145.825,298.232 145.932,298.338 146.209 M312.626 159.899 C 305.697 161.016,300.782 162.297,295.518 164.356 L 293.484 165.151 293.922 167.270 C 294.960 172.299,294.917 176.253,293.786 179.645 C 292.441 183.678,290.907 185.603,285.302 190.289 L 283.615 191.701 284.150 192.029 C 284.674 192.351,284.699 192.346,285.303 191.822 C 286.458 190.819,288.151 189.770,291.030 188.274 C 295.447 185.977,295.843 185.695,295.968 184.763 C 296.375 181.729,300.438 180.856,301.971 183.473 C 303.510 186.099,300.828 189.348,298.065 188.204 C 297.115 187.810,289.964 191.160,287.323 193.236 C 287.145 193.376,287.508 193.618,288.667 194.134 C 290.242 194.836,292.348 195.986,294.748 197.455 C 296.622 198.602,299.541 200.028,301.254 200.634 L 302.777 201.173 303.909 200.232 C 306.034 198.465,310.034 194.400,311.790 192.223 C 312.088 191.853,312.380 191.507,312.440 191.455 C 312.499 191.402,312.970 190.797,313.486 190.110 C 314.002 189.424,314.540 188.733,314.683 188.574 C 315.633 187.517,318.332 183.695,318.717 182.861 C 319.342 181.510,319.263 181.250,318.204 181.155 C 317.734 181.113,317.293 180.986,317.223 180.874 C 317.143 180.744,317.053 180.781,316.979 180.973 C 316.899 181.183,316.615 181.277,316.058 181.277 C 315.615 181.277,313.776 181.618,311.971 182.034 C 307.246 183.125,303.366 183.411,302.675 182.720 C 301.512 181.557,307.596 176.432,310.806 175.871 C 311.015 175.834,311.229 175.757,311.282 175.699 C 311.335 175.641,311.810 175.344,312.338 175.040 C 313.094 174.604,315.138 172.685,316.429 171.200 C 316.523 171.092,316.290 170.316,315.883 169.376 C 314.651 166.532,313.586 162.380,313.586 160.417 C 313.586 160.013,313.496 159.779,313.346 159.796 C 313.214 159.810,312.890 159.857,312.626 159.899 M153.913 173.569 C 151.872 174.829,151.859 177.657,153.888 178.798 C 156.701 180.378,159.657 177.137,157.832 174.474 C 157.002 173.262,155.114 172.827,153.913 173.569 M247.039 180.509 C 247.039 184.575,247.064 186.239,247.095 184.205 C 247.126 182.172,247.126 178.845,247.095 176.812 C 247.064 174.779,247.039 176.443,247.039 180.509 M183.646 173.895 C 183.603 174.007,183.594 181.222,183.626 189.930 L 183.683 205.761 184.128 206.956 C 185.692 211.153,188.821 213.408,192.607 213.067 C 195.137 212.839,196.740 212.338,196.538 211.838 C 196.468 211.664,196.395 211.435,196.375 211.330 C 196.356 211.224,196.290 211.051,196.227 210.946 C 196.165 210.840,196.009 210.430,195.882 210.034 C 195.642 209.289,195.357 209.164,194.702 209.515 C 193.250 210.292,190.720 209.855,189.456 208.609 C 187.542 206.721,187.442 206.185,187.377 197.414 L 187.326 190.604 190.639 190.639 L 193.951 190.674 193.951 189.048 L 193.951 187.422 190.590 187.422 L 187.230 187.422 187.230 180.619 L 187.230 173.815 185.477 173.753 C 184.365 173.714,183.695 173.766,183.646 173.895 M322.468 173.737 C 322.969 173.776,323.790 173.776,324.292 173.737 C 324.794 173.697,324.383 173.665,323.380 173.665 C 322.376 173.665,321.966 173.697,322.468 173.737 M123.160 173.940 L 121.788 173.996 121.693 174.708 C 121.540 175.856,121.568 212.447,121.722 212.837 C 121.843 213.144,122.104 213.197,123.629 213.222 L 125.396 213.250 125.409 206.721 C 125.416 203.130,125.457 199.630,125.502 198.944 C 125.633 196.902,125.744 195.804,125.872 195.295 C 125.938 195.031,126.034 194.611,126.086 194.362 C 126.387 192.906,129.229 189.150,130.030 189.150 C 130.130 189.150,130.447 188.976,130.735 188.764 C 131.022 188.552,131.429 188.339,131.639 188.292 C 131.849 188.244,132.355 188.084,132.764 187.936 C 136.298 186.656,141.489 188.918,141.959 191.943 C 141.992 192.150,142.077 192.413,142.149 192.528 C 142.638 193.312,142.775 196.188,142.775 205.713 L 142.775 213.346 144.215 213.344 C 146.701 213.339,146.434 214.154,146.495 206.373 C 146.607 192.150,145.735 188.520,141.531 185.707 C 138.726 183.831,134.062 183.612,130.967 185.213 C 130.649 185.377,130.388 185.445,130.386 185.363 C 130.384 185.281,130.319 185.300,130.242 185.406 C 130.164 185.511,129.626 185.920,129.045 186.314 C 127.771 187.177,126.792 188.070,126.196 188.910 C 125.466 189.941,125.377 189.716,125.397 186.894 C 125.407 185.442,125.411 181.952,125.406 179.139 L 125.396 174.025 124.964 173.954 C 124.726 173.915,123.914 173.909,123.160 173.940 M201.960 173.908 C 201.880 173.989,201.812 179.028,201.809 185.107 C 201.806 191.186,201.801 196.289,201.798 196.447 C 201.748 199.423,201.869 212.663,201.948 212.870 C 202.034 213.093,202.445 213.154,203.857 213.154 L 205.657 213.154 205.613 193.524 L 205.569 173.894 203.837 173.828 C 202.885 173.792,202.040 173.828,201.960 173.908 M168.901 183.685 C 166.175 184.374,164.063 186.500,163.471 189.150 C 163.156 190.559,163.650 193.928,164.279 194.658 C 164.386 194.783,164.732 195.242,165.047 195.678 C 165.615 196.461,167.012 197.627,168.124 198.245 C 168.440 198.420,169.390 198.953,170.235 199.429 C 171.080 199.905,171.923 200.346,172.108 200.409 C 172.292 200.473,172.444 200.601,172.444 200.695 C 172.444 200.788,172.573 200.864,172.732 200.864 C 172.890 200.864,173.020 200.951,173.020 201.056 C 173.020 201.162,173.132 201.248,173.269 201.248 C 174.234 201.248,175.524 203.614,175.442 205.234 C 175.210 209.825,169.261 211.187,165.399 207.535 L 164.381 206.572 163.660 207.410 C 163.263 207.871,162.744 208.449,162.506 208.694 C 161.956 209.261,161.926 209.169,162.957 210.126 C 168.647 215.406,177.354 213.399,178.792 206.476 C 179.080 205.088,178.905 202.931,178.435 202.077 C 178.308 201.846,178.205 201.566,178.205 201.455 C 178.205 201.015,176.199 198.893,175.069 198.137 C 174.706 197.894,174.004 197.406,173.508 197.052 C 173.012 196.699,172.505 196.389,172.381 196.364 C 171.056 196.100,168.308 194.131,167.405 192.799 C 165.259 189.632,168.391 186.053,172.380 187.115 C 173.411 187.389,175.442 188.538,176.014 189.170 C 176.524 189.733,176.813 189.621,177.922 188.430 L 178.950 187.326 178.433 186.782 C 176.017 184.240,171.944 182.917,168.901 183.685 M223.332 183.688 C 222.540 183.848,221.705 183.997,221.478 184.020 C 221.250 184.043,221.095 184.111,221.132 184.171 C 221.169 184.231,220.888 184.392,220.509 184.529 C 219.571 184.868,217.786 185.930,217.129 186.539 C 216.833 186.813,216.504 187.038,216.397 187.038 C 216.291 187.038,216.257 187.124,216.323 187.230 C 216.388 187.336,216.359 187.422,216.258 187.422 C 215.717 187.422,212.745 192.187,212.423 193.572 C 210.338 202.533,214.650 211.069,222.084 212.699 C 223.637 213.039,224.403 213.100,226.647 213.059 C 230.185 212.995,231.704 212.560,235.046 210.655 C 236.481 209.837,239.851 205.730,239.845 204.805 C 239.844 204.612,239.396 204.317,237.785 203.449 L 236.973 203.011 236.118 204.296 C 234.778 206.313,232.242 208.514,230.887 208.837 C 230.692 208.883,230.014 209.112,229.381 209.345 C 226.980 210.227,223.017 209.767,220.739 208.343 C 219.626 207.646,217.571 205.695,217.571 205.335 C 217.571 205.200,217.498 205.089,217.410 205.089 C 217.225 205.089,216.256 203.179,216.174 202.654 C 216.144 202.462,216.069 202.218,216.006 202.112 C 215.861 201.867,215.666 200.780,215.546 199.558 L 215.452 198.602 228.129 198.629 L 240.806 198.656 240.803 197.600 C 240.798 195.925,240.190 193.318,239.399 191.575 C 239.117 190.954,238.886 190.410,238.886 190.364 C 238.886 190.074,236.473 187.376,235.480 186.556 C 234.243 185.535,231.765 184.172,231.065 184.128 C 231.041 184.126,230.566 183.999,230.009 183.846 C 228.474 183.423,225.046 183.342,223.332 183.688 M74.157 184.893 C 73.833 184.939,73.744 185.043,73.831 185.271 C 74.135 186.063,77.111 193.023,77.604 194.096 C 77.908 194.756,78.157 195.408,78.157 195.545 C 78.157 195.682,78.229 195.877,78.318 195.977 C 78.406 196.077,78.800 196.937,79.193 197.888 C 79.951 199.723,79.944 199.709,80.799 201.632 C 81.104 202.319,82.117 204.695,83.049 206.913 C 86.365 214.799,85.870 214.586,88.281 209.166 C 93.384 197.694,95.295 193.456,95.428 193.316 C 95.541 193.198,100.789 204.768,103.731 211.618 C 104.445 213.283,104.480 213.328,104.921 213.165 C 105.217 213.056,105.655 212.254,106.515 210.252 C 107.167 208.732,107.793 207.339,107.907 207.156 C 108.020 206.972,108.113 206.738,108.113 206.635 C 108.113 206.532,108.410 205.818,108.772 205.048 C 109.134 204.278,109.749 202.871,110.137 201.920 C 110.526 200.970,110.960 199.976,111.102 199.712 C 111.244 199.448,111.628 198.584,111.955 197.792 C 112.282 197.000,112.647 196.135,112.766 195.871 C 112.885 195.607,112.992 195.348,113.003 195.295 C 113.014 195.242,113.135 194.999,113.270 194.755 C 113.406 194.510,113.547 194.165,113.583 193.987 C 113.649 193.663,115.969 188.229,116.860 186.313 C 117.564 184.797,117.502 184.741,115.111 184.736 L 113.755 184.734 112.921 186.510 C 112.463 187.487,112.078 188.329,112.066 188.382 C 111.953 188.878,111.098 190.910,110.969 190.990 C 110.877 191.047,110.802 191.206,110.802 191.343 C 110.802 191.481,110.527 192.189,110.191 192.916 C 109.855 193.644,109.560 194.351,109.535 194.488 C 109.509 194.625,109.233 195.273,108.921 195.929 C 108.608 196.584,107.592 198.913,106.662 201.104 C 105.732 203.296,104.913 205.089,104.841 205.089 C 104.769 205.089,104.131 203.728,103.422 202.064 C 102.713 200.401,102.056 198.893,101.960 198.714 C 101.584 198.010,96.015 185.250,96.015 185.093 C 96.015 184.265,95.076 185.062,94.472 186.402 C 94.106 187.214,93.656 188.183,93.471 188.555 C 93.286 188.927,93.135 189.298,93.135 189.379 C 93.135 189.460,92.802 190.241,92.394 191.115 C 91.987 191.988,90.938 194.345,90.063 196.351 C 89.188 198.358,88.237 200.518,87.950 201.152 C 87.663 201.786,87.136 202.970,86.780 203.784 C 86.314 204.849,86.087 205.185,85.973 204.981 C 85.805 204.680,84.684 202.024,82.292 196.255 C 81.482 194.301,80.600 192.229,80.333 191.650 C 80.066 191.070,79.628 190.033,79.361 189.345 C 79.094 188.657,78.639 187.576,78.350 186.942 C 78.060 186.308,77.765 185.602,77.694 185.372 C 77.564 184.956,75.595 184.689,74.157 184.893 M155.169 184.915 L 153.544 185.022 153.559 199.040 L 153.573 213.058 155.413 213.113 L 157.253 213.168 157.215 199.015 C 157.190 189.754,157.111 184.853,156.985 184.835 C 156.880 184.821,156.062 184.857,155.169 184.915 M229.320 187.405 C 233.219 188.520,236.581 191.915,236.290 194.445 C 236.227 194.995,236.244 195.069,236.353 194.719 C 236.486 194.295,236.519 194.280,236.639 194.591 C 236.995 195.518,237.471 195.477,226.297 195.476 L 215.821 195.474 215.938 195.049 C 217.569 189.143,223.517 185.745,229.320 187.405 M253.568 190.158 L 252.808 190.975 253.625 190.215 C 254.073 189.798,254.441 189.431,254.441 189.399 C 254.441 189.254,254.273 189.399,253.568 190.158 M279.441 195.583 C 281.511 198.485,281.982 201.588,281.252 207.529 C 280.849 210.811,280.845 210.712,281.373 210.553 C 282.499 210.213,287.258 208.259,289.057 207.397 C 291.411 206.270,292.543 205.951,292.079 206.545 C 291.812 206.885,291.816 206.893,292.127 206.650 C 292.312 206.505,292.463 206.371,292.463 206.352 C 292.463 206.333,291.599 205.596,290.542 204.714 C 289.486 203.832,288.622 203.050,288.622 202.977 C 288.622 202.903,288.459 202.765,288.259 202.670 C 288.059 202.574,287.389 202.052,286.771 201.510 C 286.152 200.967,284.998 199.977,284.205 199.309 C 283.413 198.642,282.722 198.049,282.669 197.992 C 282.616 197.935,282.184 197.574,281.709 197.190 C 281.234 196.807,280.586 196.256,280.269 195.967 C 278.805 194.629,278.738 194.598,279.441 195.583 M284.301 195.971 C 285.181 196.746,292.226 201.611,293.494 202.320 C 294.471 202.867,296.955 203.743,297.537 203.748 C 297.781 203.749,297.849 203.805,297.714 203.892 C 297.592 203.969,297.873 204.041,298.338 204.051 C 298.803 204.061,299.184 204.047,299.184 204.018 C 299.184 203.811,296.171 201.852,294.461 200.948 C 293.309 200.340,291.083 199.109,289.513 198.214 C 287.944 197.318,285.956 196.295,285.096 195.940 L 283.533 195.295 284.301 195.971 M276.589 198.368 C 276.589 199.160,276.623 199.484,276.664 199.088 C 276.706 198.692,276.706 198.044,276.664 197.648 C 276.623 197.252,276.589 197.576,276.589 198.368 M247.009 199.136 C 247.009 199.717,247.045 199.954,247.089 199.664 C 247.133 199.373,247.133 198.898,247.089 198.608 C 247.045 198.317,247.009 198.555,247.009 199.136 M269.409 206.385 L 268.747 207.105 269.467 206.443 C 269.863 206.079,270.187 205.755,270.187 205.723 C 270.187 205.577,270.025 205.715,269.409 206.385 " stroke="none" fill="#42ca01" fill-rule="evenodd"></path><path id="path3" d="M185.547 173.735 L 187.225 173.803 187.279 180.564 L 187.333 187.326 187.330 180.509 L 187.326 173.692 185.598 173.679 L 183.869 173.667 185.547 173.735 M121.630 174.062 C 121.572 174.213,121.563 174.537,121.610 174.782 C 121.676 175.126,121.701 175.088,121.721 174.612 L 121.747 173.997 123.140 173.930 L 124.532 173.864 123.134 173.826 C 122.073 173.797,121.710 173.854,121.630 174.062 M298.270 182.016 C 297.128 182.345,295.919 183.882,295.919 185.005 C 295.919 185.619,295.154 186.130,291.023 188.276 C 288.209 189.738,285.731 191.300,285.073 192.027 C 284.758 192.375,284.784 192.409,285.717 192.882 C 286.973 193.519,286.688 193.590,289.442 191.950 C 294.209 189.111,297.160 187.829,298.065 188.204 C 298.903 188.551,300.403 188.331,301.165 187.750 C 304.004 185.585,301.703 181.027,298.270 182.016 M75.324 184.873 C 75.720 184.915,76.368 184.915,76.764 184.873 C 77.160 184.832,76.836 184.798,76.044 184.798 C 75.252 184.798,74.928 184.832,75.324 184.873 M153.432 184.878 C 153.432 184.957,153.972 184.997,154.632 184.968 C 156.673 184.877,156.870 184.792,155.113 184.762 C 154.189 184.747,153.432 184.798,153.432 184.878 M170.382 186.984 C 170.674 187.028,171.106 187.027,171.342 186.981 C 171.578 186.935,171.339 186.899,170.811 186.901 C 170.283 186.902,170.090 186.940,170.382 186.984 M194.019 189.054 C 194.019 190.005,194.051 190.418,194.091 189.972 C 194.132 189.527,194.132 188.749,194.092 188.244 C 194.053 187.739,194.020 188.104,194.019 189.054 M153.514 192.319 C 153.514 194.537,153.542 195.418,153.576 194.277 C 153.610 193.136,153.610 191.321,153.576 190.244 C 153.542 189.167,153.514 190.101,153.514 192.319 M232.549 188.901 C 232.813 189.090,233.461 189.631,233.989 190.103 L 234.950 190.961 234.135 190.098 C 233.687 189.623,233.039 189.082,232.695 188.896 C 232.090 188.569,232.085 188.569,232.549 188.901 M218.713 190.062 L 218.051 190.783 218.771 190.121 C 219.441 189.505,219.579 189.342,219.433 189.342 C 219.401 189.342,219.077 189.666,218.713 190.062 M128.458 190.446 L 127.796 191.167 128.517 190.505 C 129.187 189.889,129.325 189.726,129.178 189.726 C 129.146 189.726,128.822 190.050,128.458 190.446 M187.306 190.766 C 187.248 190.916,187.232 191.283,187.270 191.582 C 187.327 192.027,187.357 191.977,187.434 191.311 C 187.531 190.471,187.488 190.290,187.306 190.766 M189.873 190.630 C 190.111 190.676,190.457 190.674,190.641 190.626 C 190.824 190.578,190.629 190.541,190.206 190.543 C 189.784 190.545,189.634 190.584,189.873 190.630 M146.180 194.911 C 146.180 195.281,146.219 195.432,146.268 195.247 C 146.316 195.062,146.316 194.760,146.268 194.575 C 146.219 194.390,146.180 194.542,146.180 194.911 M236.359 194.736 L 236.294 195.199 230.725 195.302 L 225.156 195.405 230.965 195.436 C 236.312 195.464,236.774 195.441,236.771 195.141 C 236.766 194.543,236.433 194.215,236.359 194.736 M217.715 195.438 C 218.481 195.474,219.734 195.474,220.499 195.438 C 221.265 195.401,220.639 195.372,219.107 195.372 C 217.576 195.372,216.949 195.401,217.715 195.438 M222.713 195.436 C 223.164 195.477,223.856 195.476,224.249 195.435 C 224.642 195.394,224.273 195.360,223.428 195.361 C 222.583 195.362,222.261 195.396,222.713 195.436 M211.682 198.368 C 211.682 199.160,211.716 199.484,211.758 199.088 C 211.799 198.692,211.799 198.044,211.758 197.648 C 211.716 197.252,211.682 197.576,211.682 198.368 M240.851 197.984 C 240.851 198.353,240.891 198.505,240.939 198.320 C 240.987 198.135,240.987 197.832,240.939 197.648 C 240.891 197.463,240.851 197.614,240.851 197.984 M306.181 198.224 L 305.617 198.848 306.241 198.284 C 306.823 197.758,306.953 197.600,306.805 197.600 C 306.772 197.600,306.491 197.880,306.181 198.224 M142.766 205.089 C 142.766 208.944,142.791 210.521,142.823 208.593 C 142.854 206.666,142.854 203.512,142.823 201.584 C 142.791 199.657,142.766 201.234,142.766 205.089 M216.947 198.695 C 217.184 198.741,217.573 198.741,217.811 198.695 C 218.048 198.650,217.854 198.612,217.379 198.612 C 216.904 198.612,216.709 198.650,216.947 198.695 M220.595 198.703 C 221.467 198.738,222.892 198.738,223.764 198.703 C 224.635 198.667,223.922 198.638,222.180 198.638 C 220.437 198.638,219.724 198.667,220.595 198.703 M230.389 198.703 C 232.105 198.735,234.914 198.735,236.630 198.703 C 238.346 198.672,236.942 198.646,233.509 198.646 C 230.077 198.646,228.673 198.672,230.389 198.703 M153.516 207.393 C 153.516 209.981,153.543 211.039,153.576 209.746 C 153.609 208.452,153.609 206.335,153.576 205.041 C 153.543 203.747,153.516 204.806,153.516 207.393 M162.842 210.178 C 163.200 210.547,163.537 210.850,163.590 210.850 C 163.642 210.850,163.392 210.547,163.034 210.178 C 162.676 209.808,162.339 209.506,162.287 209.506 C 162.234 209.506,162.484 209.808,162.842 210.178 M226.164 209.833 C 226.402 209.879,226.791 209.879,227.028 209.833 C 227.266 209.787,227.072 209.750,226.596 209.750 C 226.121 209.750,225.927 209.787,226.164 209.833 " stroke="none" fill="#5ed736" fill-rule="evenodd"></path><path id="path4" d="" stroke="none" fill="#55ff00" fill-rule="evenodd"></path></g></svg>